<svg width="204" height="232" viewBox="0 0 204 232" fill="none" xmlns="http://www.w3.org/2000/svg">
<path fill-rule="evenodd" clip-rule="evenodd" d="M180.275 170.168C180.138 171.277 179.932 172.377 179.659 173.461C178.756 177.16 177.459 180.752 175.788 184.175C174.675 186.637 173.585 188.667 172.022 191.664L170.059 195.48C167.265 200.828 164.619 205.862 161.763 211.228L160.822 212.982C160.065 214.391 159.154 216.059 158.434 217.407C157.634 218.847 157.025 219.936 156.932 220.047C157.437 219.001 158.668 216.539 159.899 214.157C161.948 210.157 164.822 204.631 166.865 200.785C168.416 197.831 169.991 194.846 171.499 191.978C173.007 189.11 174.576 186.193 175.912 183.313C176.891 181.273 177.766 179.184 178.533 177.055C179.326 174.818 179.909 172.513 180.275 170.168Z" fill="black"/>
<path fill-rule="evenodd" clip-rule="evenodd" d="M177.173 178.433C177.164 178.288 177.164 178.142 177.173 177.996C177.141 177.499 177.033 177.009 176.853 176.544C176.773 176.39 176.705 176.242 176.619 176.101C176.532 175.94 176.387 175.819 176.213 175.762C176.132 175.75 176.049 175.76 175.973 175.791C175.897 175.823 175.831 175.874 175.782 175.941C175.662 176.072 175.571 176.228 175.517 176.398C175.463 176.568 175.446 176.748 175.468 176.925C175.545 177.283 175.745 177.601 176.035 177.824L176.238 177.972C176.419 178.084 176.606 178.186 176.798 178.279C176.926 178.332 177.04 178.414 177.13 178.519C176.838 178.473 176.555 178.38 176.293 178.242C175.976 178.093 175.701 177.867 175.493 177.584C175.276 177.293 175.183 176.928 175.235 176.568C175.277 176.332 175.374 176.109 175.518 175.916C175.584 175.804 175.68 175.712 175.795 175.65C175.91 175.589 176.04 175.559 176.17 175.565C176.299 175.584 176.422 175.632 176.529 175.707C176.636 175.782 176.724 175.881 176.785 175.996C176.9 176.19 176.993 176.397 177.062 176.611C177.158 176.902 177.215 177.204 177.235 177.51C177.265 177.819 177.244 178.131 177.173 178.433V178.433Z" fill="black"/>
<path fill-rule="evenodd" clip-rule="evenodd" d="M179.038 177.246C179.161 177.344 179.327 177.289 179.468 177.246C179.934 177.098 180.379 176.891 180.792 176.63C181.044 176.402 181.339 176.267 181.512 175.898C181.54 175.822 181.552 175.74 181.544 175.659C181.537 175.578 181.511 175.5 181.469 175.43C181.29 175.159 180.853 175.258 180.564 175.43C180.239 175.59 179.959 175.829 179.752 176.126C179.702 176.19 179.656 176.258 179.616 176.329C179.517 176.507 179.441 176.697 179.389 176.895C179.359 177.024 179.311 177.148 179.247 177.264C179.217 177.145 179.207 177.023 179.216 176.901C179.238 176.731 179.279 176.563 179.339 176.402C179.463 176.081 179.658 175.793 179.912 175.559C180.165 175.323 180.474 175.153 180.81 175.067C180.933 175.028 181.064 175.019 181.191 175.041C181.318 175.062 181.439 175.113 181.542 175.19C181.638 175.282 181.705 175.399 181.736 175.527C181.768 175.656 181.763 175.791 181.721 175.916C181.534 176.332 181.21 176.67 180.804 176.876C180.54 177.022 180.259 177.134 179.967 177.209C179.816 177.255 179.662 177.29 179.505 177.313C179.425 177.313 179.352 177.313 179.272 177.313C179.23 177.324 179.187 177.323 179.145 177.311C179.104 177.299 179.067 177.277 179.038 177.246V177.246Z" fill="black"/>
<path fill-rule="evenodd" clip-rule="evenodd" d="M180.084 169.664C180.114 169.515 180.137 169.365 180.152 169.214C180.16 168.96 180.114 168.706 180.017 168.47C179.919 168.234 179.772 168.022 179.585 167.848C179.443 167.732 179.278 167.646 179.102 167.595C178.925 167.545 178.74 167.53 178.558 167.553C178.377 167.59 178.211 167.678 178.078 167.805C177.933 167.921 177.827 168.077 177.774 168.254C177.72 168.431 177.721 168.62 177.776 168.796C177.93 169.151 178.19 169.45 178.521 169.651L178.742 169.781C178.935 169.885 179.143 169.96 179.358 170.002C179.567 170.058 179.733 170.088 179.752 170.131C179.448 170.171 179.14 170.129 178.859 170.008C178.526 169.881 178.224 169.684 177.973 169.43C177.838 169.307 177.731 169.156 177.657 168.989C177.584 168.821 177.547 168.64 177.548 168.458C177.573 168.211 177.674 167.978 177.837 167.791C178 167.605 178.218 167.474 178.459 167.417C178.692 167.375 178.933 167.391 179.158 167.464C179.384 167.537 179.588 167.665 179.752 167.836C179.971 168.076 180.114 168.376 180.164 168.698C180.215 169.021 180.188 169.353 180.084 169.664V169.664Z" fill="black"/>
<path fill-rule="evenodd" clip-rule="evenodd" d="M180.152 169.608C180.237 169.614 180.32 169.635 180.398 169.67C180.539 169.709 180.673 169.774 180.792 169.861C180.854 169.912 180.902 169.979 180.93 170.054C180.958 170.13 180.965 170.212 180.952 170.291C180.952 170.531 180.755 170.673 180.515 170.796C180.411 170.857 180.296 170.896 180.176 170.913C180.046 170.933 179.913 170.918 179.791 170.869C179.668 170.82 179.561 170.74 179.481 170.636C179.397 170.529 179.348 170.4 179.341 170.264C179.333 170.129 179.367 169.995 179.438 169.879C179.483 169.834 179.535 169.797 179.592 169.768C179.705 169.688 179.836 169.635 179.973 169.614C180.053 169.588 180.139 169.588 180.219 169.614C180.065 169.67 179.915 169.736 179.77 169.811C179.699 169.852 179.642 169.913 179.607 169.987C179.572 170.06 179.56 170.143 179.573 170.224C179.585 170.3 179.612 170.374 179.653 170.439C179.695 170.505 179.749 170.561 179.813 170.605C179.909 170.65 180.014 170.674 180.121 170.674C180.227 170.674 180.332 170.65 180.428 170.605C180.632 170.525 180.816 170.359 180.822 170.199C180.827 170.129 180.814 170.058 180.785 169.994C180.756 169.929 180.712 169.873 180.656 169.83C180.503 169.725 180.332 169.65 180.152 169.608V169.608Z" fill="black"/>
<path fill-rule="evenodd" clip-rule="evenodd" d="M180.693 170.427C180.831 170.385 180.97 170.35 181.112 170.322C181.564 170.148 181.981 169.894 182.342 169.571C182.6 169.351 182.788 169.06 182.884 168.734C182.89 168.656 182.877 168.578 182.846 168.506C182.815 168.434 182.767 168.371 182.706 168.322C182.565 168.225 182.404 168.162 182.236 168.139C182.067 168.115 181.895 168.132 181.733 168.187C181.382 168.265 181.05 168.416 180.761 168.63L180.57 168.784C180.422 168.906 180.306 169.062 180.232 169.239C180.186 169.352 180.169 169.475 180.182 169.596C180.137 169.551 180.102 169.496 180.082 169.435C180.061 169.374 180.056 169.309 180.065 169.245C180.092 169.066 180.169 168.897 180.287 168.759C180.507 168.501 180.777 168.292 181.081 168.144C181.382 167.996 181.707 167.907 182.041 167.879C182.285 167.859 182.529 167.913 182.742 168.033C182.855 168.099 182.948 168.194 183.013 168.307C183.078 168.42 183.112 168.549 183.112 168.679C183.094 168.92 182.999 169.149 182.841 169.331C182.704 169.498 182.55 169.649 182.379 169.781C182.141 169.961 181.877 170.106 181.598 170.211C181.307 170.323 181.003 170.396 180.693 170.427V170.427Z" fill="black"/>
<path fill-rule="evenodd" clip-rule="evenodd" d="M180.595 170.433C180.587 170.559 180.556 170.682 180.502 170.796C180.373 171.221 180.112 171.593 179.758 171.861C179.507 172.082 179.197 172.225 178.865 172.273C178.693 172.313 178.514 172.313 178.342 172.273C178.248 172.246 178.16 172.199 178.083 172.137C178.007 172.075 177.945 171.997 177.899 171.91C177.817 171.741 177.775 171.556 177.776 171.368C177.778 171.182 177.818 170.998 177.893 170.828C177.968 170.658 178.077 170.505 178.213 170.378C178.274 170.322 178.34 170.273 178.41 170.23C178.596 170.116 178.808 170.05 179.025 170.039C179.089 170.031 179.153 170.038 179.214 170.058C179.275 170.078 179.33 170.112 179.376 170.156C179.139 170.18 178.906 170.24 178.687 170.334C178.452 170.452 178.264 170.645 178.152 170.883C178.04 171.121 178.012 171.389 178.072 171.645C178.116 171.796 178.217 171.924 178.353 172.003C178.489 172.082 178.651 172.106 178.804 172.07C179.144 172.023 179.465 171.885 179.733 171.67C179.936 171.529 180.114 171.356 180.262 171.159C180.418 170.94 180.531 170.694 180.595 170.433V170.433Z" fill="black"/>
<path fill-rule="evenodd" clip-rule="evenodd" d="M180.693 170.255C180.817 170.23 180.945 170.23 181.069 170.255C181.287 170.246 181.504 170.285 181.705 170.37C181.906 170.455 182.086 170.584 182.232 170.747C182.348 170.866 182.437 171.008 182.493 171.164C182.549 171.32 182.571 171.486 182.558 171.652C182.554 171.831 182.501 172.005 182.404 172.156C182.298 172.317 182.149 172.444 181.973 172.522C181.798 172.601 181.603 172.627 181.413 172.599C181.232 172.548 181.064 172.459 180.919 172.338C180.775 172.217 180.658 172.067 180.576 171.898C180.545 171.83 180.509 171.762 180.478 171.682C180.403 171.498 180.359 171.303 180.349 171.104C180.349 170.907 180.41 170.765 180.453 170.753C180.499 170.987 180.563 171.218 180.644 171.442C180.742 171.686 180.891 171.907 181.081 172.088C181.159 172.17 181.256 172.231 181.363 172.266C181.471 172.301 181.585 172.31 181.696 172.292C181.847 172.259 181.986 172.184 182.095 172.075C182.204 171.966 182.279 171.827 182.312 171.676C182.334 171.52 182.322 171.361 182.277 171.21C182.231 171.059 182.152 170.92 182.047 170.802C181.882 170.614 181.673 170.47 181.438 170.384C181.2 170.294 180.947 170.25 180.693 170.255V170.255Z" fill="black"/>
<path fill-rule="evenodd" clip-rule="evenodd" d="M30.3811 160.617L29.6672 164.574C28.9286 169.081 28.4703 173.63 28.2949 178.193C28.1922 181.54 28.2991 184.891 28.6149 188.224C28.7749 189.972 29.0703 191.677 29.3534 193.32C29.9872 196.803 31.0196 200.202 32.4304 203.449C33.8682 206.705 35.6464 209.799 37.7352 212.68C38.1906 213.296 38.646 213.911 39.1814 214.576C40.4308 216.144 41.7705 217.638 43.1938 219.05C44.5846 220.459 45.7108 221.438 45.8093 221.591C45.28 221.142 44.3446 220.422 43.3476 219.444C42.2126 218.388 41.1322 217.274 40.1106 216.108C36.0734 211.563 32.9404 206.289 30.8796 200.569C29.5451 196.793 28.6871 192.865 28.3257 188.877C27.9313 184.992 27.8387 181.083 28.0487 177.184C28.1964 174.39 28.5041 171.707 28.8734 169.048C29.3042 166.199 29.8149 163.399 30.3811 160.617Z" fill="black"/>
<path fill-rule="evenodd" clip-rule="evenodd" d="M27.8763 169.153C27.8331 168.993 27.7981 168.831 27.7717 168.667C27.6083 168.13 27.3875 167.612 27.1132 167.122L26.7932 166.642C26.6806 166.462 26.5416 166.301 26.3809 166.162C26.3507 166.132 26.3143 166.109 26.2743 166.095C26.2342 166.081 26.1916 166.075 26.1492 166.08C26.1069 166.084 26.0661 166.097 26.0295 166.119C25.993 166.141 25.9617 166.17 25.9378 166.205C25.8464 166.381 25.814 166.582 25.8455 166.778C25.8696 166.98 25.9257 167.177 26.0117 167.362C26.1951 167.741 26.4649 168.072 26.7994 168.328L27.0209 168.501C27.2117 168.642 27.4517 168.778 27.6363 168.901C27.821 169.024 27.9686 169.184 27.9686 169.233C27.6478 169.146 27.3425 169.009 27.064 168.827C26.7283 168.633 26.4251 168.388 26.1655 168.101C25.9047 167.804 25.719 167.45 25.624 167.067C25.5565 166.8 25.5565 166.521 25.624 166.254C25.6493 166.176 25.6901 166.103 25.744 166.041C25.798 165.979 25.8639 165.928 25.9378 165.891C26.0152 165.861 26.099 165.85 26.1817 165.859C26.2644 165.869 26.3434 165.899 26.4117 165.947C26.6212 166.105 26.7987 166.301 26.9348 166.525C27.0712 166.723 27.1965 166.929 27.3102 167.141C27.4615 167.446 27.5831 167.766 27.6733 168.094C27.787 168.437 27.8553 168.793 27.8763 169.153V169.153Z" fill="black"/>
<path fill-rule="evenodd" clip-rule="evenodd" d="M29.2303 172.439C29.3699 172.398 29.5117 172.366 29.6549 172.341C30.1207 172.176 30.5617 171.948 30.9657 171.664C31.2497 171.452 31.5006 171.199 31.7104 170.913C31.7561 170.845 31.7878 170.769 31.8036 170.688C31.8195 170.608 31.8192 170.525 31.8027 170.445C31.7596 170.31 31.5934 170.297 31.4273 170.347C31.2564 170.409 31.0916 170.488 30.935 170.581C30.6168 170.771 30.3302 171.01 30.0857 171.288L29.9318 171.485C29.8084 171.652 29.6993 171.829 29.6057 172.014C29.5482 172.126 29.5047 172.243 29.4764 172.365C29.4319 172.314 29.4026 172.251 29.3918 172.183C29.3809 172.116 29.3889 172.047 29.4149 171.984C29.4652 171.818 29.5355 171.659 29.6241 171.51C29.7973 171.212 30.0176 170.944 30.2765 170.716C30.5319 170.492 30.8232 170.313 31.138 170.187C31.2525 170.115 31.3847 170.077 31.5196 170.077C31.6545 170.077 31.7867 170.115 31.9011 170.187C31.9583 170.239 32.0013 170.304 32.026 170.378C32.0508 170.451 32.0565 170.529 32.0427 170.605C32.0271 170.729 31.9874 170.848 31.9257 170.956C31.6858 171.333 31.3613 171.649 30.978 171.879C30.718 172.036 30.4414 172.164 30.1534 172.261C29.8546 172.359 29.5443 172.419 29.2303 172.439V172.439Z" fill="black"/>
<path fill-rule="evenodd" clip-rule="evenodd" d="M30.4057 160.23C30.3674 160.119 30.3486 160.002 30.3503 159.885C30.3219 159.681 30.3434 159.473 30.4131 159.279C30.4828 159.085 30.5985 158.91 30.7503 158.771C30.8614 158.663 30.9957 158.582 31.1429 158.534C31.29 158.486 31.4463 158.472 31.5996 158.494C31.763 158.515 31.9179 158.579 32.0488 158.679C32.1875 158.785 32.2903 158.93 32.3432 159.097C32.396 159.263 32.3964 159.442 32.3442 159.608C32.2225 159.916 32.0073 160.179 31.7288 160.359C31.6659 160.399 31.6001 160.434 31.5319 160.463C31.3646 160.545 31.1863 160.601 31.0026 160.63C30.8242 160.63 30.6888 160.63 30.6703 160.574C30.8945 160.531 31.1147 160.469 31.3288 160.39C31.5606 160.28 31.7694 160.128 31.9442 159.94C32.113 159.779 32.2123 159.558 32.2211 159.325C32.2001 159.172 32.1337 159.029 32.0307 158.913C31.9276 158.798 31.7925 158.717 31.6426 158.679C31.4893 158.65 31.3313 158.659 31.1822 158.705C31.0332 158.751 30.8976 158.833 30.7872 158.943C30.6207 159.099 30.5031 159.3 30.4488 159.522C30.3857 159.752 30.371 159.993 30.4057 160.23V160.23Z" fill="black"/>
<path fill-rule="evenodd" clip-rule="evenodd" d="M30.3257 160.168C30.2647 160.196 30.2007 160.217 30.1349 160.23C30.0309 160.262 29.9397 160.327 29.8745 160.414C29.8093 160.501 29.7734 160.607 29.7718 160.716C29.8392 160.853 29.9555 160.961 30.098 161.017C30.1713 161.042 30.2485 161.052 30.3257 161.048C30.398 161.054 30.4706 161.042 30.5372 161.013C30.6037 160.984 30.6621 160.939 30.7072 160.882C30.7522 160.829 30.7809 160.764 30.7896 160.695C30.7984 160.627 30.7868 160.557 30.7565 160.494C30.7421 160.467 30.7234 160.442 30.7011 160.42C30.6307 160.363 30.5518 160.318 30.4672 160.285C30.3811 160.248 30.3072 160.205 30.3072 160.18C30.4463 160.161 30.5882 160.184 30.7134 160.248C30.8007 160.284 30.8751 160.346 30.9267 160.425C30.9783 160.504 31.0048 160.597 31.0026 160.691C31 160.785 30.9759 160.877 30.9322 160.96C30.8884 161.044 30.8262 161.116 30.7503 161.171C30.6469 161.238 30.5284 161.277 30.4058 161.286C30.2832 161.294 30.1604 161.272 30.0487 161.22C29.9277 161.185 29.8203 161.114 29.7411 161.016C29.6618 160.918 29.6146 160.798 29.6057 160.673C29.6156 160.587 29.6474 160.505 29.698 160.435C29.7487 160.365 29.8165 160.309 29.8949 160.273C30.03 160.209 30.1765 160.174 30.3257 160.168V160.168Z" fill="black"/>
<path fill-rule="evenodd" clip-rule="evenodd" d="M29.9134 160.802C29.8014 160.8 29.6909 160.777 29.5872 160.734C29.2109 160.653 28.8615 160.477 28.5718 160.223C28.3225 160.062 28.1443 159.811 28.0733 159.522C28.0581 159.438 28.063 159.352 28.0877 159.271C28.1123 159.19 28.1559 159.115 28.2149 159.054C28.342 158.948 28.4934 158.875 28.6555 158.842C28.8177 158.809 28.9855 158.816 29.1441 158.863C29.4556 158.924 29.7485 159.057 29.9996 159.251C30.0559 159.293 30.1093 159.338 30.1596 159.387C30.3 159.512 30.3988 159.677 30.4426 159.86C30.4426 160.076 30.3257 160.187 30.3011 160.168C30.317 160.071 30.3071 159.972 30.2726 159.88C30.238 159.788 30.1799 159.707 30.1042 159.645C29.924 159.478 29.7157 159.345 29.4888 159.251C29.2766 159.158 29.0494 159.104 28.818 159.091C28.5226 159.091 28.2518 159.245 28.258 159.46C28.2641 159.676 28.5164 159.934 28.7257 160.137C28.8819 160.288 29.053 160.422 29.2365 160.537C29.4478 160.659 29.6759 160.748 29.9134 160.802V160.802Z" fill="black"/>
<path fill-rule="evenodd" clip-rule="evenodd" d="M29.9564 160.845C29.9995 160.925 30.0057 161.042 30.0426 161.134C30.1951 161.438 30.4189 161.7 30.6949 161.897C30.8982 162.025 31.1237 162.112 31.3595 162.156C31.4767 162.166 31.5945 162.149 31.7042 162.107C31.8077 162.064 31.8935 161.986 31.9472 161.888C32.0009 161.789 32.0194 161.676 31.9996 161.565C31.9885 161.331 31.887 161.111 31.7165 160.95C31.6795 160.912 31.6382 160.879 31.5934 160.851C31.4781 160.779 31.3511 160.727 31.218 160.697C31.0888 160.661 30.978 160.63 30.9595 160.593C31.0554 160.546 31.1606 160.522 31.2672 160.522C31.3739 160.522 31.4791 160.546 31.5749 160.593C31.8122 160.687 32.0054 160.867 32.1165 161.097C32.2301 161.326 32.2626 161.586 32.2088 161.836C32.1893 161.928 32.1515 162.015 32.0975 162.092C32.0436 162.17 31.9747 162.235 31.8949 162.285C31.7359 162.368 31.5562 162.402 31.378 162.384C31.0555 162.352 30.7515 162.219 30.5103 162.002C30.3494 161.855 30.2197 161.677 30.1287 161.479C30.0305 161.281 29.9719 161.066 29.9564 160.845V160.845Z" fill="black"/>
<path fill-rule="evenodd" clip-rule="evenodd" d="M29.9134 160.673C29.8129 160.679 29.7122 160.679 29.6118 160.673C29.283 160.713 28.9805 160.873 28.7626 161.122C28.6321 161.313 28.5693 161.543 28.5841 161.774C28.6062 161.882 28.6597 161.98 28.7379 162.057C28.8038 162.14 28.89 162.205 28.9881 162.245C29.0862 162.285 29.1929 162.299 29.298 162.285C29.5096 162.213 29.6843 162.06 29.7841 161.86C29.8144 161.815 29.8412 161.768 29.8641 161.719C29.9204 161.595 29.9677 161.468 30.0057 161.337C30.0488 161.202 30.0857 161.097 30.1288 161.079C30.1977 161.278 30.1977 161.495 30.1288 161.694C30.0655 161.924 29.9472 162.136 29.7841 162.31C29.6949 162.415 29.5797 162.494 29.4502 162.541C29.3206 162.587 29.1811 162.599 29.0456 162.574C28.8663 162.541 28.7019 162.452 28.5751 162.321C28.4483 162.19 28.3654 162.022 28.3379 161.842C28.3183 161.675 28.3381 161.505 28.3958 161.347C28.4535 161.189 28.5475 161.047 28.6703 160.931C28.8435 160.78 29.0577 160.684 29.2857 160.654C29.4939 160.617 29.7077 160.623 29.9134 160.673V160.673Z" fill="black"/>
<path fill-rule="evenodd" clip-rule="evenodd" d="M27.4272 179.449C27.3958 179.342 27.3772 179.233 27.3718 179.122C27.2767 178.761 27.1317 178.416 26.941 178.095C26.7902 177.874 26.6192 177.668 26.4302 177.479C26.393 177.434 26.3443 177.399 26.2891 177.378C26.234 177.358 26.1744 177.352 26.1164 177.362C25.901 177.405 26.0671 177.756 26.1656 177.978C26.2836 178.232 26.4347 178.47 26.6149 178.685L26.7379 178.827C26.8436 178.945 26.9588 179.054 27.0826 179.153C27.1933 179.264 27.2672 179.369 27.2549 179.418C27.0402 179.356 26.8451 179.239 26.6887 179.079C26.3053 178.736 26.017 178.299 25.8518 177.812C25.8198 177.724 25.7992 177.633 25.7902 177.541C25.7824 177.48 25.7902 177.418 25.8128 177.361C25.8354 177.304 25.8721 177.254 25.9194 177.215C26.0131 177.148 26.1287 177.119 26.2429 177.134C26.3571 177.148 26.4614 177.206 26.5349 177.295C26.7821 177.524 26.99 177.792 27.1503 178.089C27.2468 178.285 27.3231 178.492 27.378 178.704C27.418 178.95 27.4345 179.199 27.4272 179.449V179.449Z" fill="black"/>
<path d="M98.3954 96.6031L96.5492 101.262L95.9338 106.603V111.465L95.4353 113.748L95.983 120.278L97.2815 125.601L96.2107 127.533L97.0784 133.115L96.9246 136.906L95.8969 144.358L97.1769 151.171L97.2384 155.571H108.993L108.586 147.146L109.103 141.644L108.445 135.121L109.423 129.256L108.863 127.41L109.614 120.536L109.83 113.902L109.559 106.659L107.639 96.8739C107.639 96.8739 101.368 97.2862 98.3954 96.6031Z" fill="#F1FAEE"/>
<path d="M26.0179 224.539C25.9442 224.546 25.8701 224.546 25.7963 224.539C24.2517 224.539 6.78656 224.373 14.3622 226.681C22.2824 229.099 50.0555 229.235 62.6959 228.158C72.631 227.424 82.6179 227.862 92.4506 229.463C99.2631 230.57 113.59 232.429 119.227 229.506C122.753 227.659 129.135 227.912 134.926 228.669C147.035 230.317 159.293 230.583 171.462 229.463C181.487 228.49 187.463 225.438 171.462 224.127C171.364 224.12 171.267 224.104 171.173 224.078L164.403 222.385C163.4 222.238 162.225 222.816 161.394 223.339C161.065 223.551 160.677 223.652 160.287 223.629C159.896 223.606 159.523 223.459 159.222 223.21C158.974 223.006 158.677 222.87 158.36 222.816L144.391 220.422C144.292 220.416 144.194 220.416 144.095 220.422L79.121 219.948L50.3386 219.499C50.1491 219.493 49.9599 219.518 49.7786 219.573L37.409 223.265C37.3024 223.297 37.1933 223.32 37.0828 223.333L26.0179 224.539Z" fill="#FFD6B9"/>
<path opacity="0.33" d="M40.9537 221.751H40.7753C39.5445 221.751 25.464 221.604 31.5442 223.598C37.9259 225.672 60.302 225.788 70.4684 224.865C78.4674 224.234 86.514 224.608 94.4199 225.979C99.9031 226.933 111.442 228.527 115.959 226.022C118.796 224.453 123.959 224.65 128.606 225.302C138.358 226.718 148.246 226.945 158.053 225.979C166.127 225.148 170.921 222.527 158.053 221.394C157.972 221.388 157.891 221.376 157.813 221.358L152.342 219.899C151.462 219.886 150.606 220.177 149.917 220.724C149.655 220.9 149.342 220.985 149.027 220.965C148.712 220.945 148.412 220.821 148.175 220.613V220.613C147.98 220.437 147.739 220.319 147.48 220.274L136.23 218.213C136.15 218.207 136.07 218.207 135.99 218.213L83.6811 217.801L60.5051 217.413C60.3528 217.413 60.2015 217.436 60.0558 217.481L50.0925 220.662L49.834 220.718L40.9537 221.751Z" fill="#DDB499"/>
<path d="M51.9756 101.354L56.0372 104.203C56.3279 104.408 56.6704 104.526 57.0253 104.544C57.3801 104.563 57.733 104.481 58.0434 104.308L61.4528 102.394C63.4744 101.266 65.7169 100.59 68.0253 100.412C73.2439 100.031 82.7211 99.9016 88.0505 103.299C88.2357 103.414 88.4574 103.457 88.6724 103.418C88.8873 103.38 89.0802 103.262 89.2136 103.089V103.089C89.3414 102.931 89.4112 102.733 89.4112 102.529C89.4112 102.326 89.3414 102.128 89.2136 101.969C87.7551 100.228 82.358 95.1384 68.2899 94.0246C63.2834 93.5801 58.283 94.9399 54.191 97.8585C53.3256 98.4746 52.5328 99.1869 51.8279 99.9816C51.7429 100.079 51.679 100.194 51.6402 100.317C51.6014 100.441 51.5885 100.571 51.6024 100.7C51.6163 100.829 51.6566 100.953 51.7208 101.066C51.785 101.178 51.8717 101.277 51.9756 101.354V101.354Z" fill="#F1FAEE"/>
<path d="M59.1697 106.831C61.7396 108.437 64.6487 109.421 67.6656 109.705C70.6825 109.989 73.7241 109.565 76.5486 108.468C86.5797 104.776 89.8783 107.01 89.8783 107.01C89.8783 107.01 70.2962 123.742 59.1697 106.831Z" fill="#F1FAEE"/>
<path d="M62.6651 155.509C65.338 156.226 68.1493 156.251 70.8343 155.581C73.5194 154.911 75.9899 153.569 78.0132 151.682C85.2504 145.14 88.8382 146.205 88.8382 146.205C88.8382 146.205 78.0502 167.922 62.6651 155.509Z" fill="#F1FAEE"/>
<path d="M56.0864 143.528C56.0864 143.528 65.1452 147.134 75.4778 141.306C85.8104 135.478 89.8474 136.943 89.8474 136.943C89.8474 136.943 71.4346 157.7 56.0864 143.528Z" fill="#F1FAEE"/>
<path d="M59.8096 122.382C59.8096 122.382 77.1948 133.176 89.4043 114.505C89.4043 114.505 82.0195 119.367 75.3609 119.25C68.7022 119.133 59.8096 122.382 59.8096 122.382Z" fill="#F1FAEE"/>
<path d="M57.5757 134.863C57.5376 134.742 57.5248 134.615 57.5381 134.49C57.5514 134.364 57.5904 134.243 57.6528 134.133C57.7152 134.023 57.7996 133.927 57.9007 133.852C58.0018 133.776 58.1174 133.722 58.2404 133.693C62.2282 132.721 81.0718 128.155 89.0105 127.41C89.1669 127.396 89.3244 127.419 89.47 127.478C89.6156 127.537 89.745 127.63 89.8474 127.749V127.749C89.9574 127.875 90.0339 128.027 90.0697 128.19C90.1055 128.354 90.0995 128.524 90.0523 128.685C90.005 128.845 89.9181 128.991 89.7995 129.11C89.6809 129.228 89.5344 129.314 89.3736 129.361C85.6812 130.407 76.2163 133.349 70.61 137.22C64.4005 141.503 58.505 137.503 57.5757 134.863Z" fill="#F1FAEE"/>
<path d="M38.0798 149.097C38.0798 149.097 28.3195 136.02 49.1262 110.825C49.1262 110.825 54.2648 104.733 57.9142 109.33C60.4927 112.585 52.1294 125.872 46.4369 134.223C43.5507 138.457 41.2922 140.278 38.0859 149.097H38.0798Z" fill="#F1FAEE"/>
<path d="M37.249 150.014C37.249 150.014 38.7814 159.423 44.6769 166.304C50.5725 173.184 50.314 181.658 50.0248 182.766C49.8771 183.307 49.6925 183.849 49.1447 183.966C47.9139 184.224 45.28 183 40.6522 173.375C33.6674 158.876 37.249 150.014 37.249 150.014Z" fill="#F1FAEE"/>
<path d="M98.3954 96.6031C98.3954 96.6031 92.5244 99.3786 92.4567 102.4C92.3891 105.422 95.7615 108.037 102.402 106.708" fill="#F1FAEE"/>
<path d="M95.8968 106.603C95.8968 106.603 92.5675 109.114 93.2383 111.262C93.6444 112.567 94.8383 113.576 96.8876 113.927" fill="#F1FAEE"/>
<path d="M96.8077 148.783C96.8077 148.783 93.4784 151.294 94.1492 153.442C94.8199 155.589 97.6077 156.931 102.845 155.86" fill="#F1FAEE"/>
<path d="M95.7307 113.619C95.7307 113.619 92.5676 116.031 92.4568 118.622C92.3829 120.278 95.86 120.376 98.3954 120.228" fill="#F1FAEE"/>
<path d="M95.9707 120.278C95.9707 120.278 92.0321 123.97 94.8076 126.321C97.583 128.672 101.472 127.041 101.472 127.041" fill="#F1FAEE"/>
<path d="M96.3645 127.404C96.3645 127.404 93.0291 129.915 93.6998 132.063C94.3706 134.211 96.7769 135.755 102.032 134.715" fill="#F1FAEE"/>
<path d="M97.06 134.863C97.06 134.863 93.8907 137.275 93.7799 139.866C93.6692 142.457 102.309 141.226 102.309 141.226" fill="#F1FAEE"/>
<path d="M96.4077 141.522C96.4077 141.522 92.4691 145.214 95.2446 147.565C98.02 149.916 101.916 148.285 101.916 148.285" fill="#F1FAEE"/>
<path d="M153.363 101.459L149.295 104.308C149.007 104.515 148.665 104.634 148.31 104.652C147.955 104.669 147.603 104.584 147.295 104.406L143.88 102.499C141.863 101.363 139.621 100.687 137.313 100.517C132.095 100.135 122.618 100.006 117.288 103.403C117.102 103.516 116.881 103.557 116.667 103.519C116.453 103.48 116.26 103.365 116.125 103.194V103.194C115.997 103.034 115.927 102.836 115.927 102.631C115.927 102.426 115.997 102.227 116.125 102.068C117.584 100.332 122.981 95.243 137.049 94.1291C142.055 93.6847 147.056 95.0445 151.148 97.9631C152.015 98.5774 152.808 99.2899 153.511 100.086C153.596 100.184 153.66 100.298 153.699 100.422C153.737 100.546 153.75 100.676 153.736 100.805C153.722 100.933 153.682 101.058 153.618 101.171C153.554 101.283 153.467 101.381 153.363 101.459V101.459Z" fill="#F1FAEE"/>
<path d="M146.169 106.96C143.598 108.566 140.688 109.55 137.669 109.833C134.651 110.116 131.609 109.691 128.784 108.591C118.759 104.899 115.46 107.139 115.46 107.139C115.46 107.139 135.043 123.872 146.169 106.96Z" fill="#F1FAEE"/>
<path d="M142.667 155.614C139.994 156.331 137.181 156.355 134.495 155.686C131.809 155.016 129.338 153.674 127.313 151.786C120.076 145.239 116.494 146.309 116.494 146.309C116.494 146.309 127.282 168.045 142.667 155.614Z" fill="#F1FAEE"/>
<path d="M149.252 143.651C149.252 143.651 140.206 147.263 129.861 141.46C119.516 135.657 115.491 137.097 115.491 137.097C115.491 137.097 133.904 157.829 149.252 143.651Z" fill="#F1FAEE"/>
<path d="M145.523 122.499C145.523 122.499 128.144 133.293 115.934 114.616C115.934 114.616 123.319 119.484 129.978 119.367C136.637 119.25 145.523 122.499 145.523 122.499Z" fill="#F1FAEE"/>
<path d="M147.763 134.986C147.801 134.866 147.814 134.739 147.801 134.614C147.787 134.489 147.748 134.368 147.686 134.258C147.623 134.149 147.539 134.054 147.438 133.979C147.337 133.904 147.221 133.851 147.098 133.823C143.104 132.844 124.267 128.284 116.328 127.539C116.172 127.525 116.014 127.548 115.869 127.607C115.723 127.666 115.594 127.759 115.491 127.878V127.878C115.381 128.004 115.305 128.156 115.269 128.32C115.233 128.483 115.239 128.653 115.286 128.814C115.334 128.974 115.421 129.121 115.539 129.239C115.658 129.357 115.804 129.444 115.965 129.49C119.658 130.536 129.122 133.478 134.729 137.349C140.932 141.632 146.834 137.626 147.763 134.986Z" fill="#F1FAEE"/>
<path d="M167.283 149.226C167.283 149.226 177.044 136.149 156.243 110.954C156.243 110.954 151.105 104.856 147.455 109.459C144.871 112.708 153.24 126.001 158.932 134.352C161.819 138.586 164.077 140.408 167.283 149.226Z" fill="#F1FAEE"/>
<path d="M168.09 150.143C168.09 150.143 166.557 159.553 160.662 166.433C154.766 173.313 155.019 181.787 155.314 182.889C155.456 183.436 155.646 183.978 156.194 184.089C157.425 184.353 160.059 183.123 164.687 173.504C171.671 159.005 168.09 150.143 168.09 150.143Z" fill="#F1FAEE"/>
<path d="M107.411 96.8985C107.411 96.8985 112.814 99.5078 112.882 102.529C112.931 104.659 111.263 106.591 107.959 107.071" fill="#F1FAEE"/>
<path d="M109.436 106.733C109.436 106.733 112.765 109.243 112.094 111.391C111.423 113.539 108.636 114.881 103.399 113.81" fill="#F1FAEE"/>
<path d="M108.531 148.912C108.531 148.912 111.86 151.423 111.19 153.571C110.519 155.719 107.731 157.06 102.494 155.983" fill="#F1FAEE"/>
<path d="M109.608 113.767C109.608 113.767 112.771 116.173 112.882 118.77C112.993 121.367 104.352 120.13 104.352 120.13" fill="#F1FAEE"/>
<path d="M109.368 120.407C109.368 120.407 113.307 124.099 110.531 126.45C109.848 127.033 109.025 127.43 108.143 127.601" fill="#F1FAEE"/>
<path d="M108.974 127.533C108.974 127.533 112.31 130.044 111.633 132.192C111.085 133.952 109.116 135.171 105.553 134.961" fill="#F1FAEE"/>
<path d="M108.279 134.992C108.279 134.992 111.442 137.398 111.553 139.995C111.608 141.226 109.706 141.595 107.676 141.644" fill="#F1FAEE"/>
<path d="M108.925 141.651C108.925 141.651 112.864 145.343 110.094 147.694C109.248 148.4 108.207 148.829 107.11 148.925" fill="#F1FAEE"/>
<path d="M87.0474 73.058L86.0997 77.0704C86.0997 77.0704 87.4351 78.7381 90.1613 77.9381L91.0044 74.2457" fill="#F1FAEE"/>
<path d="M93.5583 85.2734L94.0506 82.498C94.0506 82.498 92.6045 80.9348 89.9398 81.9195L89.6198 83.8334" fill="#F1FAEE"/>
<path d="M113.128 84.7689L112.291 81.9135C112.291 81.9135 113.59 80.2211 116.334 80.9596L116.95 83.0458" fill="#F1FAEE"/>
<path d="M99.5892 86.5843L99.9954 83.4396C99.9954 83.4396 98.4815 81.9442 95.866 83.0519L95.4968 85.8151" fill="#F1FAEE"/>
<path d="M105.503 86.6891L105.589 83.7167C105.589 83.7167 103.934 82.1844 101.423 83.569L101.319 86.6091" fill="#F1FAEE"/>
<path d="M111.442 85.4028L110.999 82.4674C110.999 82.4674 109.097 81.2366 106.876 83.0828L107.368 86.4982" fill="#F1FAEE"/>
<path d="M92.1368 74.6271L91.6998 78.5411C91.6998 78.5411 93.2322 80.0242 95.8353 78.8857L96.2107 75.3102" fill="#F1FAEE"/>
<path d="M97.6753 75.5686L97.5276 79.501C97.5276 79.501 99.1585 80.8672 101.675 79.5379L101.786 75.6055" fill="#F1FAEE"/>
<path d="M103.454 75.6119L103.589 79.2181C103.589 79.2181 105.325 80.4489 107.731 78.9474L107.571 75.3534" fill="#F1FAEE"/>
<path d="M108.5 75.1195L109.153 78.5042C109.153 78.5042 111.054 79.4642 113.208 77.6057L112.593 74.3933" fill="#F1FAEE"/>
<path d="M113.744 74.1841L115.177 77.8211C115.177 77.8211 117.227 78.4365 118.999 76.1903L117.768 73.1502" fill="#F1FAEE"/>
<path d="M89.3428 83.7165C86.2053 82.2388 83.6376 79.7749 82.0318 76.7009C81.6879 76.0633 81.1845 75.5257 80.5707 75.1406C79.957 74.7556 79.254 74.5362 78.5302 74.5039L71.8839 74.1839L77.1886 84.338C77.6046 85.1197 78.2251 85.7736 78.9838 86.2299C79.7426 86.6863 80.611 86.9279 81.4964 86.9289C82.9488 86.9289 85.2258 87.8705 88.6597 91.2367C89.5871 92.1532 90.6011 92.9776 91.6875 93.6983C95.0467 95.9751 99.0342 97.1436 103.091 97.04H103.343C107.4 97.1436 111.387 95.9751 114.747 93.6983C115.833 92.9776 116.847 92.1532 117.774 91.2367C121.208 87.8766 123.485 86.9289 124.938 86.9289C125.823 86.9279 126.692 86.6863 127.45 86.2299C128.209 85.7736 128.83 85.1197 129.246 84.338L134.55 74.1839L127.479 74.3377C126.779 74.3561 126.095 74.5485 125.488 74.8977C124.881 75.2469 124.37 75.7418 124.002 76.3378C122.5 78.5976 120.61 80.5746 118.421 82.178C113.922 84.9658 104.334 90.1598 89.3428 83.7165Z" fill="#F1FAEE"/>
<path d="M120.464 71.8825C99.4108 80.1166 84.3396 71.7533 84.3396 71.7533L85.7365 71.1994C85.7365 71.1994 63.619 78.2888 69.0222 57.3159C69.3547 56.056 69.7784 54.8219 70.2899 53.6235C71.2807 51.2911 73.1577 45.9864 71.57 42.5093L70.4315 48.3187C70.4022 48.4617 70.3309 48.5926 70.2268 48.6948C70.1226 48.797 69.9903 48.8657 69.8468 48.8921C69.7033 48.9186 69.5552 48.9016 69.4214 48.8432C69.2876 48.7849 69.1744 48.688 69.0961 48.5649C66.6898 44.6571 61.3112 33.3829 69.1453 20.1271C72.1001 15.2205 76.2145 11.1146 81.1272 8.16988C86.3567 4.97453 92.0954 2.69946 98.0938 1.44353C99.5946 1.13959 101.123 0.991109 102.654 1.00044V1.00044C104.187 0.990817 105.717 1.1393 107.22 1.44353C113.416 2.74203 119.334 5.12765 124.698 8.48988C129.277 11.3164 133.132 15.1753 135.953 19.7579C144.114 33.1798 138.655 44.6263 136.224 48.5711C135.88 49.1311 134.993 48.9834 134.864 48.1772L133.75 42.5155C132.181 45.9617 134.015 51.205 135.012 53.5927C135.538 54.8272 135.974 56.0983 136.316 57.3959C141.664 78.3196 119.59 71.224 119.59 71.224L120.464 71.8825Z" fill="#F1FAEE"/>
<path d="M76.8194 43.0692C75.4285 46.2877 72.0377 56.1157 81.3118 58.2881C83.278 58.7171 85.3152 58.7024 87.2751 58.245C100.303 55.3896 95.9276 44.7431 94.3891 41.7153C94.2661 41.4731 94.0744 41.2727 93.8379 41.1391C93.6014 41.0055 93.3307 40.9448 93.0598 40.9645L78.364 41.9738C78.0303 41.9952 77.7091 42.1089 77.4363 42.3024C77.1635 42.4958 76.9499 42.7613 76.8194 43.0692V43.0692Z" fill="#1B1633"/>
<path d="M128.329 43.0692C129.719 46.2877 133.11 56.1157 123.836 58.2881C121.87 58.7171 119.833 58.7024 117.873 58.245C104.845 55.3896 109.214 44.7431 110.759 41.7153C110.882 41.4731 111.074 41.2727 111.31 41.1391C111.547 41.0055 111.817 40.9448 112.088 40.9645L126.784 41.9738C127.118 41.9952 127.439 42.1089 127.712 42.3024C127.984 42.4958 128.198 42.7613 128.329 43.0692V43.0692Z" fill="#1B1633"/>
<path d="M103.054 49.4326C103.054 49.4326 101.245 55.5374 98.0815 59.3652C94.9184 63.193 96.4015 66.6823 96.4015 66.6823C96.4015 66.6823 98.4815 66.0669 100.709 68.2947C102.334 69.9132 105.811 68.627 107.565 67.8208C107.954 67.6419 108.292 67.3696 108.549 67.0281C108.807 66.6866 108.976 66.2866 109.042 65.8638C109.289 63.9032 108.854 61.9174 107.811 60.2391C105.466 56.0789 103.805 53.3896 103.054 49.4326Z" fill="#1B1633"/>
<path d="M153.948 154.907H51.391C49.4503 154.907 47.877 156.48 47.877 158.42V218.065C47.877 220.006 49.4503 221.579 51.391 221.579H153.948C155.888 221.579 157.462 220.006 157.462 218.065V158.42C157.462 156.48 155.888 154.907 153.948 154.907Z" fill="#E0E0E0"/>
<path d="M157.609 202.865V218.317C157.609 219.248 157.24 220.14 156.582 220.798C155.924 221.456 155.032 221.825 154.102 221.825H51.5386C50.6077 221.825 49.7149 221.456 49.056 220.798C48.3972 220.14 48.0263 219.248 48.0247 218.317" stroke="#7C7C7C" stroke-width="1.50879" stroke-miterlimit="10" stroke-linecap="round"/>
<path d="M41.4153 223.85C41.4153 223.85 0.995645 230.004 0.324856 189.744C0.324856 189.744 0.121773 184.396 1.4695 183.996C2.81724 183.596 5.16192 185.11 7.44506 191.621C9.50051 197.492 12.9468 212.834 45.04 223.579L41.4153 223.85Z" fill="#E5AC62"/>
<path d="M41.9076 221.579C41.9076 221.579 26.5964 213.419 25.1687 195.16C23.741 176.901 23.8948 151.306 17.8269 152.537C11.7591 153.768 8.42974 167.073 9.05129 176.833C9.56823 184.883 10.8975 196.163 20.2209 206.951C23.3404 210.49 26.9603 213.554 30.9658 216.047C43.0154 223.708 45.04 223.431 45.04 223.431L41.9076 221.579Z" fill="#B44538"/>
<path d="M53.2125 223.801C53.6495 224.176 54.8926 225.062 50.9109 224.035C43.5261 222.121 24.3501 210.828 31.6796 179.246C31.9011 178.279 33.5258 176.452 33.8027 179.092C34.6704 187.615 40.6952 212.951 53.2125 223.801Z" fill="#7F265B"/>
<path d="M145.234 223.389C145.671 223.764 146.914 224.65 142.932 223.622C135.547 221.715 116.371 210.416 123.695 178.833C123.922 177.867 125.541 176.039 125.824 178.68C126.667 187.197 132.716 212.539 145.234 223.389Z" fill="#7F265B"/>
<path d="M39.3106 201.105C39.3106 201.105 35.8951 183.098 38.5721 177.473C41.9629 170.328 41.7352 205.985 42.683 208.859C42.683 208.828 39.5198 202.022 39.3106 201.105Z" fill="#E5AC62"/>
<path d="M63.6067 223.641C63.5328 224.367 64.7944 224.552 65.4529 224.207C69.4161 222.028 76.1794 212.73 72.6962 198.114C68.8191 181.8 64.4559 215.394 63.6067 223.641Z" fill="#B44538"/>
<path d="M89.5028 223.881C89.3859 224.287 90.0321 224.496 90.4013 224.379C92.7152 223.542 97.2508 218.945 96.9738 210.336C96.6661 200.723 90.826 219.302 89.5028 223.881Z" fill="#7F265B"/>
<path d="M65.9882 224.539C65.9882 224.539 55.5264 227.222 57.2187 195.092C58.9111 162.962 61.5265 207.714 61.5265 207.714C61.5265 207.714 62.1419 223.579 65.9882 224.539Z" fill="#7F265B"/>
<path d="M146.821 223.973C146.821 223.973 136.36 226.656 138.052 194.526C139.744 162.396 142.36 207.142 142.36 207.142C142.36 207.142 142.975 222.988 146.821 223.973Z" fill="#7F265B"/>
<path d="M65.2744 224.379C65.2744 224.379 66.6406 209.862 74.647 204.268C81.8718 199.228 72.0377 219.499 67.6006 224.274C67.1206 224.798 65.7914 224.638 65.2744 224.379Z" fill="#E5AC62"/>
<path d="M81.6564 222.908C81.6564 222.908 83.0165 208.391 91.029 202.797C98.2538 197.751 88.4136 218.022 83.9827 222.798C83.4965 223.308 82.1672 223.161 81.6564 222.908Z" fill="#E5AC62"/>
<path d="M155.462 224.588C155.462 224.588 182.41 204.649 191.74 208.403C201.069 212.157 161.88 225.456 155.462 224.588Z" fill="#B44538"/>
<path d="M150.914 224.872C150.914 224.872 162.73 214.754 168.816 202.225C174.902 189.695 183.407 172.507 200.238 172.95C217.07 173.393 171.862 212.157 171.862 212.157C171.862 212.157 163.339 220.545 155.486 224.268C155.24 224.385 155.012 224.521 154.779 224.656C154.206 225.018 153.55 225.227 152.874 225.265C152.198 225.303 151.523 225.167 150.914 224.872V224.872Z" fill="#E5AC62"/>
<path d="M145.745 224.625C145.745 224.625 152.859 206.693 155.523 200.539C158.065 194.631 167.216 182.113 172.299 181.917C177.678 181.713 153.462 220.97 149.652 224.638C149.652 224.625 148.575 223.309 145.745 224.625Z" fill="#7F265B"/>
<path d="M145.824 224.398C145.824 224.398 136.513 213.597 144.698 204.022C152.883 194.446 145.824 224.398 145.824 224.398Z" fill="#E5AC62"/>
<path d="M110.199 224.625C110.199 224.625 100.894 213.831 109.073 204.255C117.251 194.68 110.199 224.625 110.199 224.625Z" fill="#E5AC62"/>
<path d="M81.7425 223.382C81.7425 223.382 72.4377 212.582 80.6164 203.006C88.7951 193.431 81.7425 223.382 81.7425 223.382Z" fill="#B44538"/>
<path d="M119.233 222.97C119.233 222.97 109.928 212.17 118.107 202.594C126.285 193.018 119.233 222.97 119.233 222.97Z" fill="#B44538"/>
<path d="M109.99 224.576C109.99 224.576 97.3676 217.954 101.435 206.077C105.503 194.2 109.99 224.576 109.99 224.576Z" fill="#7F265B"/>
<path d="M141.35 223.733C141.35 223.733 134.858 221.53 136.883 217.241C136.883 217.241 140.483 212.994 142.317 222.361C142.352 222.515 142.355 222.675 142.325 222.831C142.294 222.986 142.231 223.133 142.14 223.263C142.049 223.392 141.932 223.501 141.796 223.582C141.659 223.663 141.508 223.715 141.35 223.733V223.733Z" fill="#B44538"/>
<path d="M101.829 223.468C101.829 223.468 95.3307 221.265 97.3615 216.976C97.3615 216.976 100.962 212.73 102.789 222.096C102.826 222.25 102.83 222.41 102.8 222.565C102.771 222.721 102.708 222.868 102.618 222.998C102.527 223.127 102.41 223.236 102.274 223.318C102.138 223.399 101.986 223.45 101.829 223.468V223.468Z" fill="#B44538"/>
<path d="M80.5918 223.733C80.5918 223.733 74.0993 221.53 76.124 217.241C76.124 217.241 79.7241 212.994 81.558 222.361C81.5927 222.515 81.5947 222.675 81.5639 222.83C81.5331 222.985 81.4702 223.132 81.3791 223.261C81.2881 223.39 81.171 223.499 81.0354 223.58C80.8998 223.662 80.7487 223.714 80.5918 223.733V223.733Z" fill="#7F265B"/>
<path d="M55.9572 224.207C55.9572 224.207 62.4497 222.004 60.425 217.714C60.425 217.714 56.8249 213.468 54.991 222.835C54.9553 222.989 54.9526 223.149 54.983 223.304C55.0133 223.46 55.0762 223.607 55.1674 223.737C55.2585 223.866 55.376 223.975 55.5121 224.056C55.6482 224.137 55.7999 224.188 55.9572 224.207Z" fill="#E5AC62"/>
<path d="M118.618 222.908C118.618 222.908 121.75 211.985 131.953 201.332C142.157 190.68 146.723 186.076 151.468 185.086C156.212 184.095 136.877 206.255 130.433 211.985C123.99 217.714 122.021 222.367 120.138 222.908C118.254 223.45 118.618 222.908 118.618 222.908Z" fill="#E5AC62"/>
<path d="M126.809 222.373C127.219 218.497 129.122 214.933 132.113 212.434C137.08 208.403 135.4 213.05 135.4 213.05C135.4 213.05 133.855 220.367 129.159 222.385C129.159 222.373 127.51 223.161 126.809 222.373Z" fill="#B44538"/>
<path d="M109.897 223.111C109.908 222.701 109.898 222.29 109.866 221.881C109.645 218.65 109.522 205.369 121.664 199.572C135.535 192.95 111.011 225.038 111.011 225.038C111.011 225.038 109.86 225.099 109.897 223.111Z" fill="#7F265B"/>
<path d="M81.8533 223.358C81.8533 223.358 86.8873 211.173 91.189 210.157C95.4907 209.142 85.1642 222.908 85.1642 222.908C85.1642 222.908 83.1949 223.838 81.8533 223.358Z" fill="#B44538"/>
<path d="M55.9819 223.53C56.068 224.367 54.5911 224.576 53.8464 224.182C49.194 221.671 41.2615 211 45.3477 194.138C49.9079 175.356 54.9849 214.034 55.9819 223.53Z" fill="#B44538"/>
<path d="M97.9893 192.827L98.6108 198.655L101.343 199.129L104.925 198.914L107.294 198.421L107.836 192.827H97.9893Z" fill="#F1FAEE"/>
<path d="M106.051 194.003V198.655C108.051 200.348 108.833 198.378 108.833 198.378L109.054 189.473C109.054 189.473 116.217 185.984 114.876 178.55C114.328 175.535 112.211 173.565 109.891 172.291C107.676 171.083 105.193 170.45 102.669 170.45C100.146 170.45 97.663 171.083 95.4477 172.291C93.1276 173.565 91.0106 175.535 90.4629 178.55C89.1275 185.984 96.2784 189.461 96.2784 189.461L96.5061 198.366C96.5061 198.366 97.94 200.471 99.5462 198.723L99.5032 193.4" fill="#F1FAEE"/>
<path d="M99.5461 198.735C99.5461 198.735 101.694 200.649 102.666 198.735V193.702" fill="#F1FAEE"/>
<path d="M102.666 198.735C102.666 198.735 104.451 200.754 106.051 198.655Z" fill="#F1FAEE"/>
<path d="M96.9861 181.006C96.8803 180.985 96.7713 180.988 96.6664 181.013C96.5615 181.038 96.4631 181.084 96.3776 181.15C96.2921 181.216 96.2216 181.299 96.1705 181.394C96.1195 181.489 96.0891 181.593 96.0815 181.701C95.9338 183.689 95.9338 189.861 99.4354 189.117C103.608 188.224 101.762 183.849 99.2631 182.021C98.5982 181.502 97.8165 181.153 96.9861 181.006V181.006Z" fill="#1B1633"/>
<path d="M108.42 181.006C108.526 180.986 108.635 180.989 108.739 181.015C108.844 181.04 108.942 181.087 109.027 181.153C109.112 181.218 109.183 181.301 109.234 181.395C109.285 181.49 109.316 181.594 109.325 181.701C109.466 183.689 109.466 189.861 105.965 189.117C101.792 188.224 103.639 183.849 106.137 182.021C106.804 181.502 107.588 181.153 108.42 181.006Z" fill="#1B1633"/>
<path opacity="0.35" d="M71.2008 51.1743C71.2008 51.1743 64.6037 65.2054 70.9669 70.2517C76.9671 74.4057 85.7366 71.2118 85.7366 71.2118C85.7366 71.2118 68.0314 72.5841 71.2008 51.1743Z" fill="#AD7B40"/>
<path opacity="0.35" d="M53.8772 102.69C53.8772 102.69 72.6962 91.0892 89.2136 103.09C89.2136 103.09 88.869 103.939 87.712 103.09C86.5551 102.24 80.081 99.3971 69.4284 100.363C65.7735 100.525 62.2297 101.669 59.1697 103.674C59.1697 103.674 57.4588 105.397 55.828 104.056C54.1972 102.714 53.8772 102.69 53.8772 102.69Z" fill="#AD7B40"/>
<path opacity="0.35" d="M59.5142 107.342C59.5142 107.342 67.3113 118.598 89.8781 107.01C89.8781 107.01 81.1209 114.604 72.0314 114.395C62.942 114.185 59.5142 107.342 59.5142 107.342Z" fill="#AD7B40"/>
<path opacity="0.35" d="M60.0004 122.481C60.0004 122.481 77.847 127.183 89.2135 114.782C89.2135 114.782 83.7118 125.115 72.2961 125.453C72.2961 125.459 65.3851 125.847 60.0004 122.481Z" fill="#AD7B40"/>
<path opacity="0.35" d="M57.5758 134.863C57.5758 134.863 62.3575 140.032 80.6842 131.232C87.7551 128.518 85.8289 130.038 89.8783 128.352C89.8783 128.352 90.3706 129.275 88.7767 129.533C87.1828 129.792 79.6995 132.61 79.6995 132.61L71.8962 136.389C71.8962 136.389 65.373 141.927 59.5882 137.3C58.7759 136.615 58.0941 135.79 57.5758 134.863V134.863Z" fill="#AD7B40"/>
<path opacity="0.35" d="M56.8004 144.161C56.8004 144.161 69.933 152.611 89.7182 137.078C89.7182 137.078 79.4533 148.389 68.3576 148.482C68.3576 148.482 62.6159 149.103 56.8004 144.161Z" fill="#AD7B40"/>
<path opacity="0.35" d="M38.0797 149.097C38.0797 149.097 37.1997 139.811 46.2461 125.459C47.5078 123.52 48.9502 121.705 50.5539 120.038C55.7972 114.431 55.3664 108.056 55.6803 107.73C55.6803 107.73 59.0527 108.96 58.3942 111.607C57.9695 113.638 56.148 120.13 49.6001 129.49C43.0522 138.851 40.9844 142.414 40.9844 142.414L38.0797 149.097Z" fill="#AD7B40"/>
<path opacity="0.35" d="M37.3351 150.494C37.3351 150.494 39.0213 159.639 44.2953 165.848C45.7916 167.634 47.0189 169.628 47.9385 171.768C47.7231 175.879 48.4924 173.19 47.7723 175.276C47.7723 175.276 47.8523 180.864 47.6862 183.639C46.2031 183.504 46.6954 176.55 46.2154 175.541C44.5722 172.107 42.523 168.125 39.1505 162.371C37.3351 159.337 36.8489 152.149 37.3351 150.494Z" fill="#AD7B40"/>
<path opacity="0.35" d="M133.99 51.2418C133.99 51.2418 140.594 65.273 134.23 70.3193C128.224 74.4671 119.461 71.2732 119.461 71.2732C119.461 71.2732 137.166 72.6517 133.99 51.2418Z" fill="#AD7B40"/>
<path opacity="0.35" d="M151.314 102.763C151.314 102.763 132.501 91.1631 115.984 103.163C115.984 103.163 116.322 104.007 117.485 103.163C118.648 102.32 125.11 99.4711 135.763 100.437C139.418 100.599 142.962 101.742 146.021 103.748C146.021 103.748 147.732 105.465 149.369 104.13C151.006 102.794 151.314 102.763 151.314 102.763Z" fill="#AD7B40"/>
<path opacity="0.35" d="M145.683 107.416C145.683 107.416 137.88 118.672 115.319 107.084C115.319 107.084 124.07 114.678 133.166 114.468C142.261 114.259 145.683 107.416 145.683 107.416Z" fill="#AD7B40"/>
<path opacity="0.35" d="M145.191 122.555C145.191 122.555 127.344 127.25 115.984 114.85C115.984 114.85 121.485 125.188 132.901 125.527C132.901 125.527 139.806 125.921 145.191 122.555Z" fill="#AD7B40"/>
<path opacity="0.35" d="M147.591 134.93C147.591 134.93 142.809 140.1 124.482 131.306C117.418 128.586 119.338 130.112 115.294 128.426C115.294 128.426 114.802 129.349 116.396 129.607C117.99 129.866 125.467 132.684 125.467 132.684L133.283 136.444C133.283 136.444 139.806 141.983 145.591 137.349C146.4 136.672 147.078 135.852 147.591 134.93Z" fill="#AD7B40"/>
<path opacity="0.35" d="M148.391 144.229C148.391 144.229 135.283 152.685 115.473 137.152C115.473 137.152 125.738 148.463 136.84 148.549C136.84 148.549 142.581 149.177 148.391 144.229Z" fill="#AD7B40"/>
<path opacity="0.35" d="M167.117 149.171C167.117 149.171 167.991 139.884 158.945 125.533C157.695 123.594 156.263 121.779 154.668 120.112C149.431 114.505 149.861 108.124 149.541 107.804C149.541 107.804 146.169 109.034 146.834 111.674C147.252 113.705 149.074 120.204 155.622 129.564C162.17 138.924 164.237 142.488 164.237 142.488L167.117 149.171Z" fill="#AD7B40"/>
<path opacity="0.35" d="M167.856 150.562C167.856 150.562 166.176 159.713 160.902 165.916C159.578 167.492 158.465 169.234 157.591 171.098C157.782 176.138 157.462 181.24 157.499 183.849C157.499 183.849 159.006 183.917 158.976 179.276C158.972 177.362 159.393 175.471 160.206 173.738C161.628 170.698 163.419 166.968 166.047 162.47C167.856 159.411 168.348 152.217 167.856 150.562Z" fill="#AD7B40"/>
<path d="M75.0778 49.0756C75.0778 49.0756 74.9547 54.8481 77.2994 56.3004C79.6441 57.7528 81.6072 59.242 86.7089 58.362C91.8106 57.482 94.3337 54.6696 94.3337 54.6696C94.3337 54.6696 96.5122 51.7895 96.4876 48.5894C96.4876 48.5894 95.7245 54.6511 88.272 56.3496C86.0736 56.819 83.8111 56.9085 81.5826 56.6143C75.3855 55.5127 75.0778 49.0756 75.0778 49.0756Z" fill="#0A0A16"/>
<path d="M130.15 49.0756C130.15 49.0756 130.279 54.8481 127.929 56.3004C125.578 57.7528 123.621 59.242 118.519 58.362C113.417 57.482 110.9 54.6696 110.9 54.6696C110.9 54.6696 108.722 51.7895 108.74 48.5894C108.74 48.5894 109.503 54.6511 116.956 56.3496C119.154 56.819 121.417 56.9085 123.645 56.6143C129.849 55.5127 130.15 49.0756 130.15 49.0756Z" fill="#0A0A16"/>
<path d="M96.4014 66.6824C96.4014 66.6824 95.4353 64.7131 96.7399 61.5007C98.0446 58.2883 98.8323 59.7222 100.118 56.3375C100.761 54.5565 101.545 52.8299 102.463 51.1743C102.463 51.1743 101.128 59.0329 99.6877 59.9376C98.2476 60.8422 95.9583 64.0977 97.5399 65.6116C99.1215 67.1255 99.2138 64.7685 101.097 67.4209C102.98 70.0733 106.303 68.344 106.303 68.344L103.78 69.2363C103.78 69.2363 102.045 69.5809 100.223 67.8578C99.7322 67.3622 99.1265 66.9956 98.4597 66.7906C97.793 66.5855 97.086 66.5484 96.4014 66.6824V66.6824Z" fill="#0A0A16"/>
<path opacity="0.11" d="M69.0961 48.3002C69.0961 48.3002 60.7451 37.5922 68.1976 21.5794C79.8164 2.16961 100.888 1.06189 100.888 1.06189C100.888 1.06189 62.8928 11.5237 71.57 42.2446C70.5731 51.8695 69.0653 47.4202 69.0961 48.3002Z" fill="#E5AC62"/>
<path opacity="0.11" d="M136.292 48.7003C136.292 48.7003 144.649 37.9923 137.196 21.9856C125.578 2.56968 104.512 1.46811 104.512 1.46811C104.512 1.46811 142.501 11.93 133.824 42.6508C134.821 52.2696 136.329 47.8202 136.292 48.7003Z" fill="#E5AC62"/>
<path opacity="0.35" d="M82.9734 86.9598C82.9734 86.9598 87.3797 89.5076 88.9551 91.5569C90.5305 93.6062 96.0384 96.7693 100.469 96.8986C104.9 97.0278 106.999 97.2186 111.417 95.477C114.919 94.1046 117.897 91.2738 118.981 90.1537C119.316 89.8089 119.68 89.4939 120.07 89.2122C121.024 88.4699 122.056 87.8324 123.147 87.3106C123.461 87.2121 122.402 86.6952 117.824 89.9322C112.383 93.7538 101.38 96.5293 89.0659 90.4553C88.4968 90.172 87.9654 89.8185 87.4843 89.403C84.4688 86.7937 84.7642 88.2829 82.9734 86.9598Z" fill="#AD7B40"/>
<path opacity="0.35" d="M94.1306 99.4587C94.1306 99.4587 88.3458 104.634 97.6261 106.973C101.466 108.124 109.202 108.124 111.934 105.127C113.743 102.973 96.0568 109.139 94.1306 99.4587Z" fill="#AD7B40"/>
<path opacity="0.35" d="M93.3921 109.637C93.3921 109.637 91.0967 114.844 102.623 114.395C114.15 113.945 112.063 110.924 112.063 110.924C112.063 110.924 94.8198 116.068 93.3921 109.637Z" fill="#AD7B40"/>
<path opacity="0.35" d="M112.063 116.425C112.063 116.425 116.691 121.576 103.891 120.684C103.891 120.684 95.7922 120.881 93.4291 119.822C91.0659 118.764 92.8444 117.078 92.8444 117.078C92.8444 117.078 100.494 122.955 112.063 116.425Z" fill="#AD7B40"/>
<path opacity="0.35" d="M93.7799 123.718C93.7799 123.718 92.826 128.29 101.362 127.601C101.362 127.601 108.746 129.25 111.208 125.693C113.67 122.136 99.8847 130.124 93.7799 123.527" fill="#AD7B40"/>
<path opacity="0.35" d="M93.626 131.232C93.626 131.232 92.6352 135.854 103.042 135.386C113.448 134.918 111.559 131.263 111.559 131.263C111.559 131.263 97.903 136.537 93.626 131.232Z" fill="#AD7B40"/>
<path opacity="0.35" d="M94.2537 138.383C94.2537 138.383 90.512 142.168 102.032 141.238C102.032 141.238 108.063 143.085 111.079 140.623C114.094 138.161 95.9645 142.186 94.2537 138.383Z" fill="#AD7B40"/>
<path opacity="0.35" d="M79.8595 154.906H82.0995C84.7572 152.354 87.0218 149.421 88.8197 146.205C85.8274 149.943 81.9967 152.924 77.6379 154.906H79.8595Z" fill="#AD7B40"/>
<path opacity="0.35" d="M123.128 154.906C120.52 152.369 118.294 149.467 116.519 146.291C119.449 149.965 123.187 152.914 127.442 154.906C125.276 154.82 125.141 154.863 123.128 154.906Z" fill="#AD7B40"/>
<path opacity="0.35" d="M94.303 145.029C94.303 145.029 93.0721 149.288 101.768 148.937C110.463 148.586 110.039 148.494 110.87 146.678C111.7 144.863 97.4477 149.626 94.303 145.029Z" fill="#AD7B40"/>
<path opacity="0.35" d="M94.4014 152.069C94.4014 152.069 93.5398 153.959 95.8045 154.974C97.1523 154.974 98.7769 154.974 101.915 154.876C107.719 154.642 109.62 155.423 110.383 154.832C110.765 154.537 110.691 154.322 110.999 153.719C111.799 151.922 97.54 156.66 94.4014 152.069Z" fill="#AD7B40"/>
<path opacity="0.35" d="M87.0474 73.058L91.0044 74.2519L90.3582 77.1073C90.3582 77.1073 90.2475 74.9534 87.0474 73.058Z" fill="#AD7B40"/>
<path opacity="0.35" d="M91.8599 77.1073C92.3685 76.5007 93.0148 76.0244 93.7449 75.7183C94.475 75.4121 95.2677 75.2849 96.0569 75.3473L92.2414 74.4673L91.8599 77.1997" fill="#AD7B40"/>
<path opacity="0.35" d="M97.5276 76.7073C97.5276 76.7073 99.9893 75.8826 101.755 76.855V75.5072H97.6384L97.5276 76.7073Z" fill="#AD7B40"/>
<path opacity="0.35" d="M103.497 76.5719C103.497 76.5719 105.842 75.5626 107.62 76.3934L107.516 75.1626L103.602 75.3349L103.497 76.5719Z" fill="#AD7B40"/>
<path opacity="0.35" d="M108.925 77.3165C108.925 77.3165 111.7 74.4118 112.568 74.3933L108.5 75.1195L108.925 77.3165Z" fill="#AD7B40"/>
<path opacity="0.35" d="M113.744 74.184C113.744 74.184 117.19 73.7963 118.593 75.1748L117.639 72.7932L113.744 74.184Z" fill="#AD7B40"/>
<path opacity="0.35" d="M89.7428 83.1935C89.7428 83.1935 92.5121 84.3197 93.8106 83.9381L93.5768 85.2735L89.4228 83.7412L89.7428 83.1935Z" fill="#AD7B40"/>
<path opacity="0.35" d="M95.62 84.7689C96.9474 85.3786 98.433 85.5551 99.8663 85.2736L99.657 86.5844L95.4785 85.8151L95.62 84.7689Z" fill="#AD7B40"/>
<path opacity="0.35" d="M101.319 85.6737C101.319 85.6737 103.731 86.363 105.559 85.6737L105.503 86.7076H101.319V85.6737Z" fill="#AD7B40"/>
<path opacity="0.35" d="M107.226 85.4583C108.649 85.5955 110.079 85.2949 111.325 84.5968L111.54 85.4583L107.368 86.4614L107.226 85.4583Z" fill="#AD7B40"/>
<path opacity="0.35" d="M112.845 83.8519C114.218 83.5179 115.509 82.911 116.642 82.0673L116.931 82.9596L113.06 84.9227L112.845 83.8519Z" fill="#AD7B40"/>
<path d="M47.8954 169.19V157.984C47.8954 157.984 48.48 154.907 51.1386 154.907H61.0527V155.368C58.245 155.442 55.4471 155.73 52.6832 156.23C51.879 156.412 51.1488 156.834 50.5887 157.439C50.0285 158.044 49.6646 158.805 49.5447 159.62C49.0154 163.048 48.2523 169.208 48.2523 169.208L47.8954 169.19Z" fill="#F1FAEE"/>
<path d="M157.437 169.19V157.984C157.437 157.984 156.852 154.907 154.194 154.907H144.28V155.368C147.089 155.442 149.889 155.73 152.655 156.23C153.459 156.414 154.188 156.836 154.748 157.441C155.308 158.046 155.672 158.805 155.794 159.62C156.323 163.048 157.086 169.208 157.086 169.208L157.437 169.19Z" fill="#F1FAEE"/>
<path opacity="0.35" d="M91.6813 185.086C91.6813 185.086 91.6813 186.249 96.2784 189.474L96.4815 197.474L96.2292 195.086C95.6172 192.358 94.5477 189.753 93.066 187.381C92.1429 185.818 92.2414 186.434 91.6813 185.086Z" fill="#AD7B40"/>
<path opacity="0.35" d="M113.639 185.086C113.639 185.086 113.639 186.249 109.036 189.474L108.833 197.474L109.085 195.086C109.7 192.359 110.769 189.754 112.248 187.381C113.177 185.818 113.079 186.434 113.639 185.086Z" fill="#AD7B40"/>
<path d="M195.518 179.295C195.518 179.295 195.026 180.015 194.127 181.307C193.678 181.96 193.124 182.753 192.46 183.652C191.795 184.55 191.063 185.603 190.201 186.729C188.509 188.987 186.423 191.621 184.047 194.495C183.432 195.215 182.816 195.929 182.201 196.674C181.585 197.418 180.909 198.169 180.232 198.926C178.89 200.452 177.45 202.003 175.985 203.566C174.521 205.129 173.031 206.643 171.579 208.053C170.865 208.775 170.153 209.47 169.444 210.139C168.73 210.81 168.047 211.48 167.364 212.114C164.625 214.656 162.108 216.877 159.942 218.687C158.871 219.61 157.868 220.404 157 221.111C156.132 221.819 155.375 222.422 154.748 222.902C153.517 223.875 152.809 224.404 152.809 224.404L154.729 222.878C155.345 222.385 156.102 221.788 156.963 221.068C157.825 220.348 158.809 219.554 159.886 218.607C162.046 216.761 164.557 214.551 167.271 212.01C167.954 211.394 168.637 210.705 169.345 210.034C170.053 209.363 170.767 208.668 171.481 207.942C172.933 206.526 174.385 205.006 175.881 203.456C177.376 201.905 178.779 200.379 180.121 198.822C180.802 198.071 181.46 197.322 182.096 196.575C182.712 195.831 183.358 195.117 183.942 194.397C186.336 191.535 188.429 188.901 190.127 186.655C190.995 185.541 191.74 184.501 192.404 183.578C193.069 182.655 193.635 181.892 194.09 181.246C195.007 180.003 195.518 179.295 195.518 179.295Z" fill="white"/>
<path d="M185.863 211.074C185.863 211.074 185.499 211.357 184.816 211.819C183.844 212.466 182.838 213.06 181.801 213.597C180.49 214.281 178.884 215.019 177.081 215.758C175.278 216.496 173.271 217.284 171.173 218.115L160.428 222.33L157.166 223.598C156.397 223.893 155.966 224.047 155.966 224.047L157.154 223.561L160.397 222.262L171.13 218.004C173.228 217.173 175.228 216.398 177.038 215.659C178.847 214.921 180.447 214.201 181.764 213.524C182.802 212.997 183.813 212.418 184.792 211.788C185.143 211.567 185.407 211.382 185.586 211.259L185.863 211.074Z" fill="white"/>
<path d="M146.305 205.991C146.305 205.991 146.255 206.237 146.151 206.686C146.046 207.136 145.904 207.782 145.738 208.588C145.309 210.682 145.011 212.801 144.846 214.933C144.846 215.548 144.778 216.164 144.772 216.779C144.766 217.394 144.772 217.936 144.772 218.484C144.808 219.444 144.896 220.401 145.037 221.351C145.086 221.758 145.16 222.121 145.215 222.441C145.271 222.761 145.332 223.056 145.388 223.259C145.492 223.708 145.541 223.955 145.541 223.955C145.541 223.955 145.468 223.715 145.357 223.265C145.282 222.998 145.22 222.727 145.172 222.453C145.104 222.133 145.024 221.77 144.969 221.358C144.82 220.405 144.721 219.446 144.674 218.484C144.674 217.942 144.631 217.37 144.674 216.779C144.717 216.188 144.704 215.548 144.741 214.933C144.899 212.796 145.212 210.673 145.677 208.582C145.849 207.776 146.009 207.129 146.126 206.686C146.243 206.243 146.305 205.991 146.305 205.991Z" fill="white"/>
<path d="M146.514 191.461C146.514 191.461 146.077 191.861 145.283 192.563C144.489 193.264 143.338 194.292 141.941 195.591C140.544 196.889 138.895 198.446 137.123 200.231C136.236 201.129 135.32 202.077 134.384 203.08C133.449 204.083 132.501 205.136 131.559 206.237C130.618 207.339 129.713 208.44 128.858 209.511C128.002 210.582 127.221 211.64 126.482 212.662C125.018 214.711 123.762 216.601 122.661 218.157C121.559 219.714 120.63 220.945 119.959 221.776C119.288 222.607 118.894 223.038 118.894 223.038L119.165 222.705L119.934 221.751C120.593 220.914 121.516 219.684 122.599 218.114C123.682 216.545 124.938 214.656 126.396 212.576C127.128 211.554 127.922 210.496 128.765 209.413C129.609 208.33 130.513 207.234 131.467 206.139C134.723 202.389 138.202 198.84 141.886 195.511C144.698 192.963 146.514 191.461 146.514 191.461Z" fill="white"/>
<path d="M82.8257 202.791C82.8257 202.791 82.7518 203.013 82.6041 203.406C82.4564 203.8 82.2534 204.379 82.0257 205.099C81.798 205.819 81.558 206.68 81.3303 207.653C81.2256 208.139 81.1087 208.65 81.0226 209.185C80.9364 209.72 80.8441 210.274 80.7641 210.847C80.6841 211.419 80.6349 211.973 80.5979 212.514C80.561 213.056 80.5364 213.579 80.5118 214.077C80.5118 215.074 80.5118 215.973 80.5426 216.724C80.5733 217.474 80.6349 218.084 80.6779 218.508C80.721 218.933 80.7456 219.161 80.7456 219.161C80.7456 219.161 80.7026 218.927 80.6472 218.508C80.5918 218.09 80.5241 217.481 80.4749 216.73C80.4256 215.979 80.3949 215.074 80.4133 214.071C80.4133 213.573 80.4133 213.05 80.4872 212.508C80.561 211.967 80.5856 211.407 80.6472 210.828C80.7087 210.25 80.8072 209.702 80.9118 209.167C81.0164 208.631 81.121 208.12 81.2318 207.628C81.4657 206.656 81.718 205.782 81.958 205.074C82.198 204.366 82.4072 203.788 82.5734 203.394L82.8257 202.791Z" fill="white"/>
<path d="M91.0475 212.182C91.0475 212.182 90.9429 212.348 90.7459 212.637L89.909 213.868L87.1089 217.905L84.278 221.918L83.4103 223.148L83.0842 223.591C83.0842 223.591 83.1826 223.425 83.3796 223.13L84.2227 221.899L87.0166 217.862L89.8536 213.85L90.7213 212.619C90.9244 212.336 91.0475 212.182 91.0475 212.182Z" fill="white"/>
<path d="M16.9161 166.784C16.9161 166.784 16.9161 166.974 16.8237 167.338C16.7314 167.701 16.6637 168.242 16.5591 168.938C16.4545 169.633 16.313 170.482 16.196 171.473C16.1222 171.965 16.0668 172.495 16.0114 173.061C15.956 173.627 15.8883 174.218 15.8453 174.845C15.8022 175.473 15.7529 176.132 15.7222 176.815C15.6914 177.498 15.6729 178.212 15.6606 178.95C15.6483 179.689 15.6606 180.458 15.6606 181.239C15.6606 182.021 15.716 182.839 15.796 183.664C15.9314 185.404 16.1697 187.134 16.5099 188.846C16.8623 190.678 17.3477 192.482 17.9622 194.243C18.5734 196.002 19.3224 197.71 20.2023 199.351C21.0075 200.891 21.9013 202.382 22.8793 203.819C23.8209 205.185 24.7255 206.459 25.6917 207.603C26.6579 208.748 27.5379 209.8 28.3564 210.736C30.0426 212.582 31.4703 214.053 32.4673 215.044L33.6242 216.182L34.0242 216.582C34.0242 216.582 33.4519 216.047 32.4488 215.068C31.4457 214.09 29.9872 212.643 28.301 210.76C27.4579 209.825 26.5471 208.791 25.6178 207.64C24.6886 206.489 23.7716 205.222 22.7931 203.856C21.8089 202.418 20.9089 200.924 20.0977 199.382C19.2202 197.73 18.4732 196.011 17.8638 194.243C17.248 192.475 16.7606 190.665 16.4053 188.827C16.0798 187.117 15.8518 185.389 15.7222 183.652C15.6422 182.821 15.636 182.009 15.5929 181.19C15.5499 180.372 15.5929 179.633 15.5929 178.895C15.5929 178.156 15.5929 177.442 15.6668 176.753C15.7406 176.064 15.7468 175.412 15.8022 174.784C15.8576 174.156 15.9129 173.553 15.9745 172.999C16.036 172.445 16.0976 171.904 16.1714 171.411C16.2945 170.415 16.4422 169.565 16.553 168.876C16.6637 168.187 16.7745 167.645 16.8422 167.282C16.9099 166.919 16.9161 166.784 16.9161 166.784Z" fill="white"/>
<path d="M3.84497 192.772L3.98651 193.246C4.08498 193.554 4.20806 194.015 4.41114 194.6C4.61422 195.184 4.85423 195.898 5.16193 196.717C5.46963 197.535 5.86964 198.452 6.33735 199.449C7.43782 201.784 8.74351 204.016 10.239 206.12C12.0767 208.69 14.1944 211.047 16.553 213.148C20.8679 216.958 25.9055 219.861 31.3658 221.684C33.0111 222.251 34.7012 222.679 36.4182 222.964C37.0336 223.056 37.5075 223.099 37.8275 223.124L38.326 223.155C37.6871 223.147 37.0495 223.093 36.4182 222.995C35.8028 222.908 35.0582 222.773 34.2089 222.57C33.3597 222.367 32.3627 222.084 31.3473 221.751C28.888 220.942 26.5069 219.913 24.2333 218.674C21.456 217.147 18.8539 215.32 16.473 213.228C12.1598 209.392 8.68424 204.708 6.2635 199.468C5.7958 198.465 5.42655 197.541 5.1127 196.723C4.79884 195.904 4.55884 195.191 4.37422 194.6C4.00498 193.437 3.84497 192.772 3.84497 192.772Z" fill="white"/>
<path d="M33.7412 192.384C33.7412 192.384 33.7412 192.871 33.8028 193.751C33.8119 194.286 33.8489 194.82 33.9135 195.351C33.9812 195.966 34.0243 196.686 34.172 197.462C34.2335 197.849 34.3012 198.255 34.3689 198.692C34.4366 199.129 34.5597 199.548 34.652 200.003C34.8366 200.914 35.132 201.849 35.4151 202.859C35.5628 203.357 35.7659 203.849 35.9382 204.366L36.2151 205.142L36.5413 205.917C36.9598 206.976 37.489 208.022 38.0183 209.099C38.5475 210.176 39.1752 211.173 39.8091 212.108L40.2706 212.816C40.4306 213.044 40.5968 213.265 40.7568 213.487C41.083 213.917 41.3722 214.36 41.7107 214.767C42.3568 215.554 42.9722 216.33 43.5877 216.994C43.9077 217.327 44.2031 217.665 44.5108 217.967L45.4339 218.816C45.9939 219.376 46.5539 219.813 47.0278 220.219C47.2739 220.422 47.4893 220.613 47.6985 220.779L48.3139 221.216L49.4094 222.035C49.4094 222.035 49.0093 221.758 48.2955 221.241C47.8544 220.937 47.4292 220.61 47.0216 220.262C46.5416 219.856 45.9754 219.425 45.4092 218.871L44.5046 218.022C44.1969 217.727 43.8892 217.407 43.5753 217.056C42.923 216.391 42.3015 215.616 41.6368 214.816C41.3045 214.416 41.0214 213.973 40.6706 213.536L40.1537 212.847L39.6922 212.139C39.0768 211.203 38.4613 210.17 37.889 209.123C37.3167 208.077 36.8244 206.994 36.4121 205.936L36.0859 205.154L35.809 204.373C35.6367 203.856 35.4397 203.357 35.292 202.859C35.0089 201.849 34.7197 200.902 34.5412 199.991C34.4489 199.535 34.3382 199.105 34.2643 198.674C34.1905 198.243 34.1351 197.843 34.0735 197.443C33.932 196.662 33.9012 195.948 33.8335 195.326C33.8335 195.012 33.772 194.711 33.7597 194.458V193.72C33.7412 192.871 33.7412 192.384 33.7412 192.384Z" fill="white"/>
<path d="M76.0563 205.751C76.0563 205.751 75.9086 205.997 75.6255 206.428C75.3424 206.859 74.9301 207.486 74.4378 208.274C73.4531 209.837 72.1423 212.028 70.813 214.514C69.4838 217 68.3945 219.314 67.6437 221C67.2745 221.85 66.9729 222.533 66.776 223.013C66.5791 223.493 66.456 223.745 66.456 223.745C66.456 223.745 66.8499 222.674 67.576 220.976C68.3022 219.277 69.3792 216.951 70.7084 214.459C72.0377 211.966 73.367 209.788 74.4008 208.237C74.9055 207.462 75.3239 206.84 75.6316 206.391L76.0563 205.751Z" fill="white"/>
<path d="M48.0801 190.864C48.0801 190.864 48.0801 191.326 48.037 192.163C48.037 192.581 47.9939 193.098 47.9939 193.695C47.9939 194.292 47.9939 194.969 47.9939 195.72C47.9939 197.215 48.1047 199.006 48.2832 200.981C48.3939 201.966 48.4862 203 48.6586 204.058C48.8309 205.117 49.0032 206.231 49.2063 207.357C49.4093 208.483 49.6678 209.572 49.9324 210.619C50.1971 211.665 50.4802 212.662 50.7509 213.622C51.3233 215.517 51.9079 217.21 52.4556 218.607C52.7141 219.308 52.9848 219.93 53.2125 220.484C53.4402 221.037 53.6433 221.505 53.8279 221.887C54.1726 222.65 54.3572 223.074 54.3572 223.074L53.791 221.899C53.6126 221.524 53.3972 221.056 53.1756 220.502C52.9541 219.948 52.6648 219.333 52.4002 218.656C51.8402 217.265 51.2494 215.579 50.6648 213.677C50.394 212.717 50.0863 211.72 49.8401 210.668C49.594 209.616 49.3417 208.526 49.1078 207.406C48.874 206.286 48.7016 205.172 48.5601 204.102C48.4186 203.031 48.3016 201.997 48.197 201.025C48.0247 199.049 47.9385 197.258 47.9385 195.757C47.9385 195.006 47.9385 194.323 47.9385 193.732C47.9385 193.141 47.9385 192.618 47.9939 192.2C48.0432 191.307 48.0801 190.864 48.0801 190.864Z" fill="white"/>
<path d="M90.7521 43.851C90.7521 43.851 90.6044 44.0048 90.3213 44.2633L89.1274 45.3525L85.2319 48.9834L81.3734 52.6758L80.2103 53.7897C79.9395 54.0543 79.7795 54.1959 79.7795 54.1959C79.7795 54.1959 79.921 54.042 80.1918 53.7712L81.3303 52.6266C82.2965 51.6666 83.6504 50.3558 85.1581 48.9342C86.6658 47.5126 88.0628 46.2387 89.0782 45.3279L90.309 44.2633C90.5859 43.9863 90.7521 43.851 90.7521 43.851Z" fill="#EDEBFF"/>
<path d="M92.426 44.4478L92.0752 44.7985L91.0967 45.7216L87.8597 48.7556L84.5981 51.7587L83.5888 52.6634L83.2134 52.9834L83.5642 52.6388L84.5366 51.7095L87.7736 48.6817L91.0352 45.6786L92.0322 44.7739L92.426 44.4478Z" fill="#EDEBFF"/>
<path d="M91.2198 48.0849L90.8875 48.4172L89.9583 49.2972L86.8812 52.1958L83.7735 55.0635L82.8196 55.9251C82.598 56.1282 82.4626 56.239 82.4626 56.239C82.4626 56.239 82.5796 56.1159 82.8011 55.9066L83.7242 55.0204L86.8012 52.1219L89.909 49.2541L90.8567 48.3926C91.0906 48.1895 91.2198 48.0849 91.2198 48.0849Z" fill="#EDEBFF"/>
<path d="M92.9737 48.7619C92.9737 48.7619 92.8814 48.8542 92.7029 49.0081L91.9459 49.6235C91.3305 50.1712 90.4321 50.9281 89.4843 51.7774L87.2258 53.8144C86.9304 54.0851 86.6842 54.3128 86.4935 54.479C86.3027 54.6452 86.1612 54.7559 86.1919 54.8236C86.1965 54.83 86.2025 54.8351 86.2094 54.8387C86.2164 54.8423 86.2241 54.8441 86.2319 54.8441C86.2397 54.8441 86.2475 54.8423 86.2544 54.8387C86.2614 54.8351 86.2674 54.83 86.2719 54.8236C86.2673 54.8327 86.2602 54.8402 86.2515 54.8455C86.2428 54.8508 86.2329 54.8536 86.2227 54.8536C86.2125 54.8536 86.2026 54.8508 86.1939 54.8455C86.1852 54.8402 86.1781 54.8327 86.1735 54.8236C86.1735 54.8236 86.1735 54.7252 86.2412 54.6759L86.4627 54.4544L87.1766 53.7651C87.792 53.2113 88.5428 52.4851 89.4166 51.7097C90.2905 50.9343 91.2628 50.1096 91.9152 49.5804L92.6844 48.965C92.8629 48.8358 92.9737 48.7619 92.9737 48.7619Z" fill="#EDEBFF"/>
<path d="M86.475 45.2846L86.1366 45.6108L85.195 46.4785C84.4011 47.217 83.3119 48.2447 82.118 49.3832C80.9241 50.5217 79.8595 51.5802 79.0902 52.3433L78.1856 53.2479C77.9702 53.4572 77.8409 53.568 77.8409 53.568L78.1609 53.2233L79.0471 52.2941C79.7979 51.5187 80.8564 50.4479 82.0441 49.3094C83.2319 48.1709 84.3457 47.1555 85.1212 46.4354L86.0812 45.5862C86.3397 45.3893 86.475 45.2846 86.475 45.2846Z" fill="#EDEBFF"/>
<path d="M86.4627 43.7278C86.4627 43.7278 86.3642 43.8201 86.1735 43.974L85.3611 44.5894C84.678 45.1371 83.7303 45.894 82.7026 46.7433C81.6749 47.5925 80.7518 48.3803 80.0871 48.9464L79.2994 49.6234L79.004 49.8634C79.004 49.8634 79.0963 49.7649 79.2748 49.5987L80.0441 48.9034C80.6964 48.2879 81.6072 47.5248 82.6411 46.6694C83.6749 45.814 84.6227 45.0694 85.3242 44.5401L86.155 43.9247L86.4627 43.7278Z" fill="#EDEBFF"/>
<path d="M84.5981 42.54C84.5981 42.54 84.4811 42.6446 84.2534 42.8231L83.318 43.6108C82.5241 44.2631 81.4718 45.1739 80.2841 46.2201C79.0964 47.2663 78.1056 48.2509 77.3794 48.9709L76.5178 49.8264L76.1978 50.1341L76.4932 49.8017L77.3302 48.9217C78.044 48.1832 79.0533 47.1924 80.2164 46.1462C81.3795 45.1001 82.4688 44.1954 83.2934 43.5554L84.2534 42.8169C84.4627 42.6261 84.5981 42.54 84.5981 42.54Z" fill="#EDEBFF"/>
<path d="M80.2163 44.2263C80.2163 44.2263 80.1732 44.2755 80.0932 44.3555L79.724 44.6817L78.4932 45.7279L77.2624 46.7556L76.8747 47.0571C76.7824 47.131 76.7331 47.1679 76.727 47.1618C76.766 47.1148 76.8093 47.0716 76.8562 47.0325L77.2193 46.7064L78.4501 45.6602L79.6809 44.6325L80.0625 44.3309L80.2163 44.2263Z" fill="#EDEBFF"/>
<path d="M94.4506 49.5618L94.2229 49.7772L93.6075 50.3433C93.0721 50.8172 92.3398 51.488 91.5459 52.2388C90.752 52.9896 90.0443 53.685 89.5335 54.1957L88.9181 54.8112C88.7766 54.9527 88.6904 55.0265 88.6904 55.0265C88.6904 55.0265 88.7581 54.9342 88.8935 54.7865L89.4658 54.1711C89.9582 53.648 90.6597 52.9403 91.4536 52.1895C92.2475 51.4387 92.9982 50.7803 93.546 50.3433L94.2044 49.8018L94.4506 49.5618Z" fill="#EDEBFF"/>
<path d="M114.027 43.6725C114.027 43.6725 114.193 43.8017 114.482 44.054L115.713 45.1248C116.728 46.0295 118.119 47.2972 119.633 48.7249C121.147 50.1527 122.495 51.4696 123.461 52.4174L124.599 53.562C124.87 53.8328 125.012 53.9866 125.012 53.9866C125.012 53.9866 124.852 53.8512 124.581 53.5866L123.418 52.4666L119.559 48.7742L115.664 45.1433L114.482 44.0479L114.027 43.6725Z" fill="#EDEBFF"/>
<path d="M112.359 44.2693C112.359 44.2693 112.494 44.3801 112.728 44.5893L113.725 45.4939L116.987 48.4971L120.224 51.531L121.196 52.4541L121.547 52.8049L121.171 52.4788L120.181 51.5741L116.919 48.5709L113.682 45.5432L112.704 44.6139C112.476 44.3985 112.359 44.2693 112.359 44.2693Z" fill="#EDEBFF"/>
<path d="M113.559 47.9187C113.559 47.9187 113.688 48.0233 113.916 48.2264L114.864 49.088L117.971 51.9619L121.048 54.8543L121.972 55.7405C122.193 55.9497 122.31 56.0728 122.31 56.0728C122.31 56.0728 122.181 55.9682 121.953 55.7651L120.999 54.9035L117.891 52.0357L114.814 49.1372L113.885 48.251L113.559 47.9187Z" fill="#EDEBFF"/>
<path d="M111.805 48.5771C111.805 48.5771 111.916 48.6509 112.1 48.7986L112.87 49.414C113.522 49.9494 114.408 50.6941 115.368 51.5433C116.328 52.3926 117.177 53.1864 117.787 53.7649L118.494 54.4603C118.574 54.528 118.673 54.6388 118.581 54.688C118.488 54.7373 118.513 54.6265 118.525 54.6388C118.537 54.6511 118.525 54.688 118.581 54.6757C118.636 54.6634 118.581 54.5526 118.476 54.4849L117.744 53.808C117.128 53.2418 116.267 52.4603 115.282 51.6172C114.297 50.7741 113.436 50.0048 112.82 49.4633L112.063 48.8171C111.897 48.6694 111.805 48.5771 111.805 48.5771Z" fill="#EDEBFF"/>
<path d="M118.304 45.1001C118.304 45.1001 118.439 45.2047 118.667 45.4016L119.627 46.2509C120.433 46.9771 121.541 47.9802 122.735 49.131C123.928 50.2818 124.981 51.3341 125.732 52.1095L126.618 53.0388C126.827 53.2603 126.938 53.3896 126.938 53.3896C126.938 53.3896 126.809 53.2788 126.593 53.0634L125.688 52.1588C124.919 51.3957 123.842 50.3495 122.661 49.2048C121.479 48.0602 120.378 47.0325 119.584 46.3001L118.667 45.457C118.421 45.2232 118.304 45.1001 118.304 45.1001Z" fill="#EDEBFF"/>
<path d="M118.316 43.5493L118.624 43.7647L119.454 44.3801C120.156 44.9093 121.11 45.654 122.138 46.5032C123.165 47.3525 124.082 48.1525 124.735 48.7371C125.061 49.0325 125.319 49.2725 125.504 49.4325L125.775 49.7033L125.485 49.4572L124.692 48.7864C124.027 48.214 123.11 47.4325 122.076 46.5832C121.042 45.734 120.107 44.9709 119.418 44.4232C119.079 44.1524 118.802 43.9308 118.605 43.8078C118.408 43.6847 118.316 43.5493 118.316 43.5493Z" fill="#EDEBFF"/>
<path d="M120.181 42.3801C120.181 42.3801 120.316 42.4663 120.544 42.6386L121.504 43.3832C122.31 43.9986 123.405 44.9217 124.581 45.9679C125.756 47.0141 126.753 48.0111 127.467 48.7434C127.818 49.1188 128.082 49.4203 128.304 49.6234L128.599 49.9557C128.599 49.9557 128.482 49.8511 128.279 49.648L127.418 48.7926C126.692 48.0726 125.67 47.0941 124.513 46.0479C123.356 45.0017 122.273 44.0848 121.479 43.4325L120.513 42.6447L120.181 42.3801Z" fill="#EDEBFF"/>
<path d="M124.562 44.0172C124.616 44.0454 124.666 44.0806 124.71 44.1218L125.092 44.4233L126.322 45.4449L127.553 46.4972L127.916 46.8234C127.962 46.8616 128.005 46.9027 128.045 46.9465C128.045 46.9465 127.99 46.9465 127.898 46.848L127.51 46.5465L126.279 45.5187L125.048 44.4664L124.679 44.1402C124.636 44.103 124.597 44.0618 124.562 44.0172V44.0172Z" fill="#EDEBFF"/>
<path d="M110.328 49.3833L110.58 49.5679L111.239 50.1095C111.787 50.5772 112.531 51.2295 113.331 51.9557C114.131 52.6819 114.827 53.4203 115.319 53.9434L115.891 54.5588L116.094 54.7988C116.094 54.7988 116.008 54.725 115.867 54.5835L115.251 53.968C114.741 53.4634 114.02 52.7372 113.239 52.0111C112.457 51.2849 111.713 50.5956 111.177 50.1156L110.562 49.5556C110.408 49.4633 110.328 49.3833 110.328 49.3833Z" fill="#EDEBFF"/>
<path d="M99.3492 184.003C99.3492 184.003 99.3492 184.058 99.2753 184.144L99.0476 184.507L98.303 185.738L97.583 186.969L97.3676 187.344C97.3453 187.391 97.3163 187.435 97.2814 187.473C97.2959 187.422 97.3165 187.372 97.343 187.326L97.5276 186.938C97.6937 186.612 97.9338 186.169 98.2168 185.707C98.4999 185.246 98.783 184.809 98.9923 184.513L99.2507 184.163L99.3492 184.003Z" fill="#9D93E2"/>
<path d="M99.6938 184.846C99.6439 184.963 99.5842 185.077 99.5154 185.184L99.0784 185.99L98.6538 186.803C98.6024 186.92 98.5384 187.032 98.463 187.135C98.4976 187.012 98.5429 186.893 98.5984 186.778C98.6907 186.563 98.8261 186.261 98.9923 185.947C99.1584 185.634 99.3369 185.332 99.4661 185.154C99.5281 185.041 99.6047 184.938 99.6938 184.846V184.846Z" fill="#9D93E2"/>
<path d="M98.8015 183.215C98.7514 183.35 98.6874 183.48 98.6107 183.603C98.4815 183.83 98.3092 184.15 98.0999 184.489C97.8907 184.827 97.7061 185.141 97.5645 185.363C97.423 185.584 97.3307 185.72 97.3245 185.72C97.3723 185.585 97.4364 185.457 97.5153 185.338C97.6384 185.104 97.8168 184.79 98.0199 184.446C98.223 184.101 98.4199 183.787 98.5615 183.566C98.6298 183.441 98.7102 183.324 98.8015 183.215V183.215Z" fill="#9D93E2"/>
<path d="M105.688 184.39C105.688 184.39 105.731 184.427 105.793 184.507L106.045 184.858C106.254 185.153 106.537 185.572 106.82 186.052C107.103 186.532 107.343 186.969 107.51 187.283L107.7 187.67C107.727 187.716 107.746 187.766 107.756 187.818L107.67 187.689L107.454 187.313L106.734 186.083L105.989 184.852L105.743 184.538C105.72 184.491 105.702 184.441 105.688 184.39V184.39Z" fill="#9D93E2"/>
<path d="M105.349 185.227C105.436 185.321 105.513 185.425 105.577 185.535C105.706 185.732 105.872 186.009 106.045 186.329C106.217 186.649 106.352 186.944 106.445 187.16C106.503 187.273 106.546 187.393 106.574 187.517C106.499 187.414 106.437 187.302 106.389 187.184C106.279 186.975 106.125 186.692 105.959 186.372L105.522 185.566C105.45 185.461 105.392 185.347 105.349 185.227V185.227Z" fill="#9D93E2"/>
<path d="M106.236 183.603C106.33 183.709 106.412 183.824 106.482 183.947C106.623 184.175 106.814 184.483 107.017 184.827C107.22 185.172 107.399 185.486 107.528 185.72C107.601 185.842 107.664 185.97 107.719 186.101C107.626 185.992 107.543 185.875 107.473 185.75C107.331 185.529 107.14 185.221 106.937 184.877C106.734 184.532 106.556 184.212 106.426 183.984C106.355 183.861 106.291 183.734 106.236 183.603V183.603Z" fill="#9D93E2"/>
<path d="M51.9756 101.354L56.0372 104.203C56.3279 104.408 56.6704 104.526 57.0253 104.544C57.3801 104.563 57.733 104.481 58.0434 104.308L61.4528 102.394C63.4744 101.266 65.7169 100.59 68.0253 100.412C73.2439 100.031 82.7211 99.9016 88.0505 103.299C88.2357 103.414 88.4574 103.457 88.6724 103.418C88.8873 103.38 89.0802 103.262 89.2136 103.089V103.089C89.3414 102.931 89.4112 102.733 89.4112 102.529C89.4112 102.326 89.3414 102.128 89.2136 101.969C87.7551 100.228 82.358 95.1384 68.2899 94.0246C63.2834 93.5801 58.283 94.9399 54.191 97.8585C53.3256 98.4746 52.5328 99.1869 51.8279 99.9816C51.7429 100.079 51.679 100.194 51.6402 100.317C51.6014 100.441 51.5885 100.571 51.6024 100.7C51.6163 100.829 51.6566 100.953 51.7208 101.066C51.785 101.178 51.8717 101.277 51.9756 101.354V101.354Z" stroke="black" stroke-width="1.50879" stroke-linecap="round" stroke-linejoin="round"/>
<path d="M59.1697 106.831C61.7396 108.437 64.6487 109.421 67.6656 109.705C70.6825 109.989 73.7241 109.565 76.5486 108.468C86.5797 104.776 89.8783 107.01 89.8783 107.01C89.8783 107.01 70.2962 123.742 59.1697 106.831Z" stroke="black" stroke-width="1.50879" stroke-linecap="round" stroke-linejoin="round"/>
<path d="M72.9669 154.876C74.818 154.116 76.5202 153.034 77.9948 151.682C85.2319 145.14 88.8197 146.205 88.8197 146.205C87.1051 149.451 84.8656 152.391 82.1918 154.906" stroke="black" stroke-width="1.50879" stroke-linecap="round" stroke-linejoin="round"/>
<path d="M56.0864 143.528C56.0864 143.528 65.1452 147.134 75.4778 141.306C85.8104 135.478 89.8474 136.943 89.8474 136.943C89.8474 136.943 71.4346 157.7 56.0864 143.528Z" stroke="black" stroke-width="1.50879" stroke-linecap="round" stroke-linejoin="round"/>
<path d="M59.8096 122.382C59.8096 122.382 77.1948 133.176 89.4043 114.505C89.4043 114.505 82.0195 119.367 75.3609 119.25C68.7022 119.133 59.8096 122.382 59.8096 122.382Z" stroke="black" stroke-width="1.50879" stroke-linecap="round" stroke-linejoin="round"/>
<path d="M57.5757 134.863C57.5376 134.742 57.5248 134.615 57.5381 134.49C57.5514 134.364 57.5904 134.243 57.6528 134.133C57.7152 134.023 57.7996 133.927 57.9007 133.852C58.0018 133.776 58.1174 133.722 58.2404 133.693C62.2282 132.721 81.0718 128.155 89.0105 127.41C89.1669 127.396 89.3244 127.419 89.47 127.478C89.6156 127.537 89.745 127.63 89.8474 127.749V127.749C89.9574 127.875 90.0339 128.027 90.0697 128.19C90.1055 128.354 90.0995 128.524 90.0523 128.685C90.005 128.845 89.9181 128.991 89.7995 129.11C89.6809 129.228 89.5344 129.314 89.3736 129.361C85.6812 130.407 76.2163 133.349 70.61 137.22C64.4005 141.503 58.505 137.503 57.5757 134.863Z" stroke="black" stroke-width="1.50879" stroke-linecap="round" stroke-linejoin="round"/>
<path d="M38.0798 149.097C38.0798 149.097 28.3195 136.02 49.1262 110.825C49.1262 110.825 54.2648 104.733 57.9142 109.33C60.4927 112.585 52.1294 125.872 46.4369 134.223C43.5507 138.457 41.2922 140.278 38.0859 149.097H38.0798Z" stroke="black" stroke-width="1.50879" stroke-linecap="round" stroke-linejoin="round"/>
<path d="M47.8954 183.738C46.4123 183.006 44.086 180.482 40.6706 173.375C33.6857 158.876 37.2674 149.989 37.2674 149.989C37.2674 149.989 38.7997 159.399 44.6953 166.279C45.9806 167.778 47.057 169.445 47.8954 171.233" stroke="black" stroke-width="1.50879" stroke-linecap="round" stroke-linejoin="round"/>
<path d="M98.3954 96.6031C98.3954 96.6031 92.5244 99.3786 92.4567 102.4C92.3891 105.422 95.7615 108.037 102.402 106.708" stroke="black" stroke-width="1.50879" stroke-linecap="round" stroke-linejoin="round"/>
<path d="M95.8968 106.603C95.8968 106.603 92.5675 109.114 93.2383 111.262C93.6444 112.567 94.8383 113.576 96.8876 113.927" stroke="black" stroke-width="1.50879" stroke-linecap="round" stroke-linejoin="round"/>
<path d="M96.8077 148.783C96.8077 148.783 93.4784 151.294 94.1492 153.442C94.3209 153.99 94.6327 154.484 95.0538 154.876" stroke="black" stroke-width="1.50879" stroke-linecap="round" stroke-linejoin="round"/>
<path d="M95.7307 113.619C95.7307 113.619 92.5676 116.031 92.4568 118.622C92.3829 120.278 95.86 120.376 98.3954 120.228" stroke="black" stroke-width="1.50879" stroke-linecap="round" stroke-linejoin="round"/>
<path d="M95.9707 120.278C95.9707 120.278 92.0321 123.97 94.8076 126.321C97.583 128.672 101.472 127.041 101.472 127.041" stroke="black" stroke-width="1.50879" stroke-linecap="round" stroke-linejoin="round"/>
<path d="M96.3645 127.404C96.3645 127.404 93.0291 129.915 93.6998 132.063C94.3706 134.211 96.7769 135.755 102.032 134.715" stroke="black" stroke-width="1.50879" stroke-linecap="round" stroke-linejoin="round"/>
<path d="M97.06 134.863C97.06 134.863 93.8907 137.275 93.7799 139.866C93.6692 142.457 102.309 141.226 102.309 141.226" stroke="black" stroke-width="1.50879" stroke-linecap="round" stroke-linejoin="round"/>
<path d="M96.4077 141.522C96.4077 141.522 92.4691 145.214 95.2446 147.565C98.02 149.916 101.916 148.285 101.916 148.285" stroke="black" stroke-width="1.50879" stroke-linecap="round" stroke-linejoin="round"/>
<path d="M153.363 101.459L149.295 104.308C149.007 104.515 148.665 104.634 148.31 104.652C147.955 104.669 147.603 104.584 147.295 104.406L143.88 102.499C141.863 101.363 139.621 100.687 137.313 100.517C132.095 100.135 122.618 100.006 117.288 103.403C117.102 103.516 116.881 103.557 116.667 103.519C116.453 103.48 116.26 103.365 116.125 103.194V103.194C115.997 103.034 115.927 102.836 115.927 102.631C115.927 102.426 115.997 102.227 116.125 102.068C117.584 100.332 122.981 95.243 137.049 94.1291C142.055 93.6847 147.056 95.0445 151.148 97.9631C152.015 98.5774 152.808 99.2899 153.511 100.086C153.596 100.184 153.66 100.298 153.699 100.422C153.737 100.546 153.75 100.676 153.736 100.805C153.722 100.933 153.682 101.058 153.618 101.171C153.554 101.283 153.467 101.381 153.363 101.459V101.459Z" stroke="black" stroke-width="1.50879" stroke-linecap="round" stroke-linejoin="round"/>
<path d="M146.169 106.96C143.598 108.566 140.688 109.55 137.669 109.833C134.651 110.116 131.609 109.691 128.784 108.591C118.759 104.899 115.46 107.139 115.46 107.139C115.46 107.139 135.043 123.872 146.169 106.96Z" stroke="black" stroke-width="1.50879" stroke-linecap="round" stroke-linejoin="round"/>
<path d="M132.138 154.906C130.379 154.154 128.756 153.114 127.338 151.829C120.101 145.282 116.519 146.352 116.519 146.352C118.197 149.528 120.377 152.413 122.975 154.894" stroke="black" stroke-width="1.50879" stroke-linecap="round" stroke-linejoin="round"/>
<path d="M149.252 143.651C149.252 143.651 140.206 147.263 129.861 141.46C119.516 135.657 115.491 137.097 115.491 137.097C115.491 137.097 133.904 157.829 149.252 143.651Z" stroke="black" stroke-width="1.50879" stroke-linecap="round" stroke-linejoin="round"/>
<path d="M145.523 122.499C145.523 122.499 128.144 133.293 115.934 114.616C115.934 114.616 123.319 119.484 129.978 119.367C136.637 119.25 145.523 122.499 145.523 122.499Z" stroke="black" stroke-width="1.50879" stroke-linecap="round" stroke-linejoin="round"/>
<path d="M147.763 134.986C147.801 134.866 147.814 134.739 147.801 134.614C147.787 134.489 147.748 134.368 147.686 134.258C147.623 134.149 147.539 134.054 147.438 133.979C147.337 133.904 147.221 133.851 147.098 133.823C143.104 132.844 124.267 128.284 116.328 127.539C116.172 127.525 116.014 127.548 115.869 127.607C115.723 127.666 115.594 127.759 115.491 127.878V127.878C115.381 128.004 115.305 128.156 115.269 128.32C115.233 128.483 115.239 128.653 115.286 128.814C115.334 128.974 115.421 129.121 115.539 129.239C115.658 129.357 115.804 129.444 115.965 129.49C119.658 130.536 129.122 133.478 134.729 137.349C140.932 141.632 146.834 137.626 147.763 134.986Z" stroke="black" stroke-width="1.50879" stroke-linecap="round" stroke-linejoin="round"/>
<path d="M167.283 149.226C167.283 149.226 177.044 136.149 156.243 110.954C156.243 110.954 151.105 104.856 147.455 109.459C144.871 112.708 153.24 126.001 158.932 134.352C161.819 138.586 164.077 140.408 167.283 149.226Z" stroke="black" stroke-width="1.50879" stroke-linecap="round" stroke-linejoin="round"/>
<path d="M157.499 183.849C158.982 183.098 161.296 180.556 164.687 173.504C171.671 159.005 168.09 150.118 168.09 150.118C168.09 150.118 166.557 159.528 160.662 166.408C159.377 167.908 158.3 169.574 157.462 171.362" stroke="black" stroke-width="1.50879" stroke-linecap="round" stroke-linejoin="round"/>
<path d="M107.411 96.8985C107.411 96.8985 112.814 99.5078 112.882 102.529C112.931 104.659 111.263 106.591 107.959 107.071" stroke="black" stroke-width="1.50879" stroke-linecap="round" stroke-linejoin="round"/>
<path d="M109.436 106.733C109.436 106.733 112.765 109.243 112.094 111.391C111.423 113.539 108.636 114.881 103.399 113.81" stroke="black" stroke-width="1.50879" stroke-linecap="round" stroke-linejoin="round"/>
<path d="M108.531 148.912C108.531 148.912 111.86 151.423 111.19 153.571C111.031 154.074 110.755 154.532 110.383 154.906" stroke="black" stroke-width="1.50879" stroke-linecap="round" stroke-linejoin="round"/>
<path d="M109.608 113.767C109.608 113.767 112.771 116.173 112.882 118.77C112.993 121.367 104.352 120.13 104.352 120.13" stroke="black" stroke-width="1.50879" stroke-linecap="round" stroke-linejoin="round"/>
<path d="M109.368 120.407C109.368 120.407 113.307 124.099 110.531 126.45C109.848 127.033 109.025 127.43 108.143 127.601" stroke="black" stroke-width="1.50879" stroke-linecap="round" stroke-linejoin="round"/>
<path d="M108.974 127.533C108.974 127.533 112.31 130.044 111.633 132.192C111.085 133.952 109.116 135.171 105.553 134.961" stroke="black" stroke-width="1.50879" stroke-linecap="round" stroke-linejoin="round"/>
<path d="M108.279 134.992C108.279 134.992 111.442 137.398 111.553 139.995C111.608 141.226 109.706 141.595 107.676 141.644" stroke="black" stroke-width="1.50879" stroke-linecap="round" stroke-linejoin="round"/>
<path d="M108.925 141.651C108.925 141.651 112.864 145.343 110.094 147.694C109.248 148.4 108.207 148.829 107.11 148.925" stroke="black" stroke-width="1.50879" stroke-linecap="round" stroke-linejoin="round"/>
<path d="M87.0474 73.058L86.0997 77.0704C86.0997 77.0704 87.4351 78.7381 90.1613 77.9381L91.0044 74.2457" stroke="black" stroke-width="1.50879" stroke-linecap="round" stroke-linejoin="round"/>
<path d="M93.5583 85.2734L94.0506 82.498C94.0506 82.498 92.6045 80.9348 89.9398 81.9195L89.6198 83.8334" stroke="black" stroke-width="1.50879" stroke-linecap="round" stroke-linejoin="round"/>
<path d="M113.128 84.7689L112.291 81.9135C112.291 81.9135 113.59 80.2211 116.334 80.9596L116.95 83.0458" stroke="black" stroke-width="1.50879" stroke-linecap="round" stroke-linejoin="round"/>
<path d="M99.5892 86.5843L99.9954 83.4396C99.9954 83.4396 98.4815 81.9442 95.866 83.0519L95.4968 85.8151" stroke="black" stroke-width="1.50879" stroke-linecap="round" stroke-linejoin="round"/>
<path d="M105.503 86.6891L105.589 83.7167C105.589 83.7167 103.934 82.1844 101.423 83.569L101.319 86.6091" stroke="black" stroke-width="1.50879" stroke-linecap="round" stroke-linejoin="round"/>
<path d="M111.442 85.4028L110.999 82.4674C110.999 82.4674 109.097 81.2366 106.876 83.0828L107.368 86.4982" stroke="black" stroke-width="1.50879" stroke-linecap="round" stroke-linejoin="round"/>
<path d="M92.1368 74.6271L91.6998 78.5411C91.6998 78.5411 93.2322 80.0242 95.8353 78.8857L96.2107 75.3102" stroke="black" stroke-width="1.50879" stroke-linecap="round" stroke-linejoin="round"/>
<path d="M97.6753 75.5686L97.5276 79.501C97.5276 79.501 99.1585 80.8672 101.675 79.5379L101.786 75.6055" stroke="black" stroke-width="1.50879" stroke-linecap="round" stroke-linejoin="round"/>
<path d="M103.454 75.6119L103.589 79.2181C103.589 79.2181 105.325 80.4489 107.731 78.9474L107.571 75.3534" stroke="black" stroke-width="1.50879" stroke-linecap="round" stroke-linejoin="round"/>
<path d="M108.5 75.1195L109.153 78.5042C109.153 78.5042 111.054 79.4642 113.208 77.6057L112.593 74.3933" stroke="black" stroke-width="1.50879" stroke-linecap="round" stroke-linejoin="round"/>
<path d="M113.744 74.1841L115.177 77.8211C115.177 77.8211 117.227 78.4365 118.999 76.1903L117.768 73.1502" stroke="black" stroke-width="1.50879" stroke-linecap="round" stroke-linejoin="round"/>
<path d="M89.3428 83.7165C86.2053 82.2388 83.6376 79.7749 82.0318 76.7009C81.6879 76.0633 81.1845 75.5257 80.5707 75.1406C79.957 74.7556 79.254 74.5362 78.5302 74.5039L71.8839 74.1839L77.1886 84.338C77.6046 85.1197 78.2251 85.7736 78.9838 86.2299C79.7426 86.6863 80.611 86.9279 81.4964 86.9289C82.9488 86.9289 85.2258 87.8705 88.6597 91.2367C89.5871 92.1532 90.6011 92.9776 91.6875 93.6983C95.0467 95.9751 99.0342 97.1436 103.091 97.04H103.343C107.4 97.1436 111.387 95.9751 114.747 93.6983C115.833 92.9776 116.847 92.1532 117.774 91.2367C121.208 87.8766 123.485 86.9289 124.938 86.9289C125.823 86.9279 126.692 86.6863 127.45 86.2299C128.209 85.7736 128.83 85.1197 129.246 84.338L134.55 74.1839L127.479 74.3377C126.779 74.3561 126.095 74.5485 125.488 74.8977C124.881 75.2469 124.37 75.7418 124.002 76.3378C122.5 78.5976 120.61 80.5746 118.421 82.178C113.922 84.9658 104.334 90.1598 89.3428 83.7165Z" stroke="black" stroke-width="1.50879" stroke-linecap="round" stroke-linejoin="round"/>
<path d="M120.464 71.8825C99.4108 80.1166 84.3396 71.7533 84.3396 71.7533L85.7365 71.1994C85.7365 71.1994 63.619 78.2888 69.0222 57.3159C69.3547 56.056 69.7784 54.8219 70.2899 53.6235C71.2807 51.2911 73.1577 45.9864 71.57 42.5093L70.4315 48.3187C70.4022 48.4617 70.3309 48.5926 70.2268 48.6948C70.1226 48.797 69.9903 48.8657 69.8468 48.8921C69.7033 48.9186 69.5552 48.9016 69.4214 48.8432C69.2876 48.7849 69.1744 48.688 69.0961 48.5649C66.6898 44.6571 61.3112 33.3829 69.1453 20.1271C72.1001 15.2205 76.2145 11.1146 81.1272 8.16988C86.3567 4.97453 92.0954 2.69946 98.0938 1.44353C99.5946 1.13959 101.123 0.991109 102.654 1.00044V1.00044C104.187 0.990817 105.717 1.1393 107.22 1.44353C113.416 2.74203 119.334 5.12765 124.698 8.48988C129.277 11.3164 133.132 15.1753 135.953 19.7579C144.114 33.1798 138.655 44.6263 136.224 48.5711C135.88 49.1311 134.993 48.9834 134.864 48.1772L133.75 42.5155C132.181 45.9617 134.015 51.205 135.012 53.5927C135.538 54.8272 135.974 56.0983 136.316 57.3959C141.664 78.3196 119.59 71.224 119.59 71.224L120.464 71.8825Z" stroke="black" stroke-width="1.50879" stroke-linecap="round" stroke-linejoin="round"/>
<path d="M76.8194 43.0692C75.4285 46.2877 72.0377 56.1157 81.3118 58.2881C83.278 58.7171 85.3152 58.7024 87.2751 58.245C100.303 55.3896 95.9276 44.7431 94.3891 41.7153C94.2661 41.4731 94.0744 41.2727 93.8379 41.1391C93.6014 41.0055 93.3307 40.9448 93.0598 40.9645L78.364 41.9738C78.0303 41.9952 77.7091 42.1089 77.4363 42.3024C77.1635 42.4958 76.9499 42.7613 76.8194 43.0692V43.0692Z" stroke="black" stroke-width="1.50879" stroke-miterlimit="10"/>
<path d="M128.329 43.0692C129.719 46.2877 133.11 56.1157 123.836 58.2881C121.87 58.7171 119.833 58.7024 117.873 58.245C104.845 55.3896 109.214 44.7431 110.759 41.7153C110.882 41.4731 111.074 41.2727 111.31 41.1391C111.547 41.0055 111.817 40.9448 112.088 40.9645L126.784 41.9738C127.118 41.9952 127.439 42.1089 127.712 42.3024C127.984 42.4958 128.198 42.7613 128.329 43.0692V43.0692Z" stroke="black" stroke-width="1.50879" stroke-miterlimit="10"/>
<path d="M103.054 49.4326C103.054 49.4326 101.245 55.5374 98.0815 59.3652C94.9184 63.193 96.4015 66.6823 96.4015 66.6823C96.4015 66.6823 98.4815 66.0669 100.709 68.2947C102.334 69.9132 105.811 68.627 107.565 67.8208C107.954 67.6419 108.292 67.3696 108.549 67.0281C108.807 66.6866 108.976 66.2866 109.042 65.8638C109.289 63.9032 108.854 61.9174 107.811 60.2391C105.466 56.0789 103.805 53.3896 103.054 49.4326Z" stroke="black" stroke-width="1.50879" stroke-miterlimit="10"/>
<path d="M47.8954 188.846V158.42C47.8946 157.959 47.9849 157.501 48.1612 157.075C48.3375 156.648 48.5963 156.26 48.9228 155.934C49.2493 155.607 49.637 155.349 50.0637 155.172C50.4904 154.996 50.9477 154.906 51.4093 154.907H153.948C154.88 154.907 155.773 155.277 156.432 155.936C157.091 156.595 157.462 157.489 157.462 158.42V196.692" stroke="#7C7C7C" stroke-width="1.50879" stroke-miterlimit="10" stroke-linecap="round"/>
<path d="M106.051 194.003V198.655C108.051 200.348 108.833 198.378 108.833 198.378L109.054 189.473C109.054 189.473 116.217 185.984 114.876 178.55C114.328 175.535 112.211 173.565 109.891 172.291C107.676 171.083 105.193 170.45 102.669 170.45C100.146 170.45 97.663 171.083 95.4477 172.291C93.1276 173.565 91.0106 175.535 90.4629 178.55C89.1275 185.984 96.2784 189.461 96.2784 189.461L96.5061 198.366C96.5061 198.366 97.94 200.471 99.5462 198.723L99.5032 193.4" stroke="black" stroke-width="0.754396" stroke-linecap="round" stroke-linejoin="round"/>
<path d="M99.5461 198.735C99.5461 198.735 101.694 200.649 102.666 198.735V193.702" stroke="black" stroke-width="0.754396" stroke-linecap="round" stroke-linejoin="round"/>
<path d="M102.666 198.735C102.666 198.735 104.451 200.754 106.051 198.655" stroke="black" stroke-width="0.754396" stroke-linecap="round" stroke-linejoin="round"/>
<path d="M96.9861 181.006C96.8803 180.985 96.7713 180.988 96.6664 181.013C96.5615 181.038 96.4631 181.084 96.3776 181.15C96.2921 181.216 96.2216 181.299 96.1705 181.394C96.1195 181.489 96.0891 181.593 96.0815 181.701C95.9338 183.689 95.9338 189.861 99.4354 189.117C103.608 188.224 101.762 183.849 99.2631 182.021C98.5982 181.502 97.8165 181.153 96.9861 181.006V181.006Z" stroke="black" stroke-width="0.754396" stroke-miterlimit="10"/>
<path d="M108.42 181.006C108.526 180.986 108.635 180.989 108.739 181.015C108.844 181.04 108.942 181.087 109.027 181.153C109.112 181.218 109.183 181.301 109.234 181.395C109.285 181.49 109.316 181.594 109.325 181.701C109.466 183.689 109.466 189.861 105.965 189.117C101.792 188.224 103.639 183.849 106.137 182.021C106.804 181.502 107.588 181.153 108.42 181.006Z" stroke="black" stroke-width="0.754396" stroke-miterlimit="10"/>
</svg>
